<svg width="409" height="480" viewBox="0 0 409 480" fill="none" xmlns="http://www.w3.org/2000/svg">
<g clip-path="url(#clip0_17_383)">
<path d="M73.4899 31.4124L68.4499 16.6966C68.4499 16.6966 75.9799 11.8447 92.7099 16.3765C93.6699 20.148 73.4999 31.4124 73.4999 31.4124H73.4899Z" fill="#49370A" stroke="black" stroke-miterlimit="10"/>
<path d="M163.93 478.999C187.03 478.999 209.2 475.098 225.38 472.257C230.95 471.276 235.76 470.426 239.94 469.846C286.42 463.313 309.94 437.743 318.79 428.109L318.9 427.989L319.06 427.959C327.47 426.279 333.09 422.757 335.77 417.485C339.52 410.112 336.3 401.469 335.6 399.758L231.92 403.419C224.89 418.866 217.29 422.117 212.15 422.117C208.4 422.117 205.65 420.446 204.67 419.746L190.01 436.843L189.63 436.473C189.46 436.302 171.89 419.046 142.58 373.037C114.55 329.04 116.66 259.112 116.95 252.22L12.9799 255.771C12.4599 262.134 7.50986 336.633 52.5499 418.505C74.9399 459.212 111.38 479.009 163.94 479.009L163.93 478.999ZM137.4 430.42C139.49 430.42 146.34 430.75 146.69 435.062C146.85 437.013 146.45 438.553 145.51 439.644C144.39 440.944 142.74 441.294 141.55 441.364C141.38 441.364 132.15 441.304 125.78 441.124C120.57 440.984 118.73 438.303 118.76 436.543C118.83 432.371 122.59 430.47 126.28 430.42C127.48 430.41 129.07 430.4 130.67 430.4C133.8 430.4 136.92 430.42 137.01 430.42C137.01 430.42 137.16 430.42 137.41 430.42H137.4ZM117.49 408.061C119.58 408.061 126.43 408.431 126.78 413.233C126.95 415.534 126.49 417.315 125.44 418.525C124.32 419.816 122.76 420.176 121.65 420.256C121.46 420.256 112.24 420.186 105.87 419.986C100.66 419.826 98.8198 416.855 98.8498 414.894C98.9198 410.242 102.68 408.111 106.37 408.071C107.57 408.061 109.16 408.051 110.76 408.051C113.89 408.051 117 408.071 117.1 408.071C117.1 408.071 117.25 408.071 117.5 408.071L117.49 408.061ZM99.7898 377.559C104.1 377.559 108.81 379.11 109.08 383.482C109.51 390.344 105.64 391.395 103.95 391.525C103.73 391.525 94.5298 391.445 88.1598 391.215C82.9498 391.025 81.1099 387.633 81.1399 385.392C81.2099 380.06 84.9698 377.619 88.6498 377.559C89.8498 377.539 91.4398 377.539 93.0398 377.539C96.1598 377.539 99.2698 377.559 99.3798 377.559C99.3798 377.559 99.5298 377.559 99.7798 377.559H99.7898ZM86.0199 344.256C90.3299 344.256 95.0398 345.927 95.3098 350.609C95.7198 357.711 92.2698 359.072 90.1798 359.252C89.9498 359.252 80.7499 359.172 74.3899 358.922C69.1899 358.722 67.3398 355.08 67.3698 352.679C67.4398 347.277 71.6198 344.396 75.7198 344.326C79.2498 344.276 85.4498 344.266 85.6098 344.266C85.6098 344.266 85.7699 344.266 86.0199 344.266V344.256ZM75.4298 306.491C79.7398 306.491 84.4498 308.162 84.7198 312.844C85.1298 319.946 81.6798 321.307 79.5898 321.487C79.3598 321.487 70.1599 321.407 63.7999 321.157C58.5999 320.957 56.7498 317.315 56.7798 314.914C56.8498 309.182 60.6099 306.561 64.2899 306.501C65.4899 306.481 67.0898 306.481 68.6798 306.481C71.7998 306.481 74.8999 306.501 75.0199 306.501C75.0199 306.501 75.1799 306.501 75.4199 306.501L75.4298 306.491Z" fill="#49370A"/>
<path d="M116.41 252.73L13.4199 256.251C13.0999 260.333 12.0399 278.47 15.4899 304.581C19.0999 331.921 28.5299 373.828 52.9699 418.266C65.1999 440.494 82.1499 456.751 103.37 466.605C120.64 474.618 140.44 478.509 163.93 478.509C187.42 478.509 209.13 474.618 225.29 471.767C230.87 470.786 235.68 469.936 239.87 469.346C286.17 462.843 309.6 437.363 318.42 427.769L318.64 427.529L318.96 427.469C327.21 425.828 332.71 422.387 335.32 417.265C338.78 410.462 336.13 402.499 335.26 400.278L232.24 403.91C225.13 419.356 217.4 422.617 212.14 422.617C208.66 422.617 206.01 421.227 204.75 420.406L190.72 436.763L190.03 437.573L189.27 436.833C189.1 436.663 171.49 419.356 142.14 373.308C126.74 349.128 120.57 317.336 118.12 294.917C115.83 273.978 116.24 257.092 116.41 252.74M74.9999 306.011C75.0599 306.011 75.2099 306.011 75.4199 306.011C79.9599 306.011 84.9199 307.802 85.2099 312.834C85.6599 320.647 81.4599 321.847 79.6299 321.997H79.5799H79.5299C79.4399 321.997 70.1699 321.907 63.7699 321.667C58.2099 321.447 56.2399 317.516 56.2699 314.915C56.3499 308.852 60.3499 306.071 64.2799 306.011C65.3499 305.991 66.8299 305.981 68.6799 305.981C71.6899 305.981 74.6899 306.001 74.9999 306.001M90.1699 359.762H90.1199C90.0299 359.762 80.7599 359.672 74.3599 359.432C68.7999 359.212 66.8299 355.281 66.8599 352.68C66.9299 346.957 71.3699 343.906 75.7099 343.836C79.1699 343.786 85.1599 343.776 85.5899 343.776C85.6499 343.776 85.7999 343.776 86.0199 343.776C90.5599 343.776 95.5199 345.567 95.8099 350.599C96.2599 358.412 92.0599 359.612 90.2299 359.762H90.1799M99.3699 377.079C99.4299 377.079 99.5799 377.079 99.7899 377.079C104.33 377.079 109.28 378.76 109.58 383.472C110.03 390.785 105.82 391.905 103.99 392.045H103.95H103.91C103.82 392.045 94.5499 391.965 88.1499 391.735C82.5899 391.535 80.6199 387.843 80.6499 385.402C80.7299 379.73 84.7299 377.139 88.6599 377.079C89.8599 377.059 91.4599 377.059 93.0499 377.059C96.0699 377.059 99.0699 377.079 99.3799 377.079M117.08 407.571C117.14 407.571 117.28 407.571 117.5 407.571C119.7 407.571 126.91 407.981 127.29 413.204C127.47 415.644 126.97 417.545 125.83 418.866C124.85 419.986 123.42 420.646 121.69 420.766H121.65H121.61C121.52 420.766 112.25 420.696 105.86 420.496C100.29 420.326 98.3199 417.055 98.3599 414.894C98.4399 409.912 102.44 407.621 106.37 407.581C107.57 407.571 109.17 407.561 110.76 407.561C113.79 407.561 116.81 407.581 117.09 407.581M137.01 429.94C137.06 429.94 137.21 429.94 137.43 429.94C139.63 429.94 146.83 430.31 147.21 435.042C147.38 437.133 146.94 438.794 145.91 439.994C144.93 441.125 143.44 441.775 141.61 441.885H141.58H141.55C141.46 441.885 132.2 441.825 125.8 441.645C120.23 441.495 118.26 438.514 118.29 436.553C118.37 432.051 122.37 429.99 126.3 429.94C127.5 429.93 129.1 429.92 130.69 429.92C133.73 429.92 136.76 429.94 137.02 429.94M117.49 251.71C117.49 251.71 113.4 326.289 143.02 372.778C172.64 419.266 190 436.123 190 436.123L204.62 419.066C204.62 419.066 207.66 421.617 212.18 421.617C217.47 421.617 224.78 418.115 231.63 402.929L335.96 399.248C335.96 399.248 346.94 422.917 319.19 428.45C307.45 441.225 284.22 464.134 240.04 470.336C223.28 472.687 194.76 479.5 163.96 479.5C123.5 479.5 79.0899 467.755 52.1199 418.736C4.62987 332.402 12.5299 255.271 12.5299 255.271L117.48 251.69L117.49 251.71ZM75.0599 307.011C75.0599 307.011 71.8899 306.991 68.7199 306.991C67.1299 306.991 65.5399 306.991 64.3399 307.011C60.7399 307.072 57.3899 309.612 57.3199 314.925C57.2899 317.125 58.9999 320.477 63.8599 320.657C70.3199 320.907 79.5899 320.987 79.5899 320.987C81.8099 320.797 84.6299 319.216 84.2599 312.874C83.9399 307.352 77.1999 306.991 75.4699 306.991C75.2099 306.991 75.0699 306.991 75.0699 306.991L75.0599 307.011ZM90.1799 358.772C92.3999 358.582 95.2199 357.001 94.8499 350.659C94.5299 345.137 87.7899 344.776 86.0599 344.776C85.7999 344.776 85.6599 344.776 85.6599 344.776C85.6599 344.776 79.3799 344.776 75.7799 344.836C72.1799 344.896 67.9899 347.377 67.9199 352.7C67.8899 354.9 69.5999 358.252 74.4599 358.432C80.9199 358.682 90.1899 358.762 90.1899 358.762L90.1799 358.772ZM99.4299 378.08C99.4299 378.08 96.2599 378.06 93.0899 378.06C91.4999 378.06 89.9099 378.06 88.7099 378.08C85.1099 378.13 81.7599 380.491 81.6899 385.413C81.6599 387.453 83.3699 390.555 88.2299 390.725C94.6899 390.955 103.96 391.035 103.96 391.035C106.18 390.865 108.99 389.394 108.63 383.522C108.31 378.4 101.57 378.07 99.8399 378.07C99.5799 378.07 99.4399 378.07 99.4399 378.07L99.4299 378.08ZM117.13 408.572C117.13 408.572 113.96 408.552 110.79 408.552C109.2 408.552 107.61 408.552 106.41 408.572C102.81 408.612 99.4599 410.652 99.3899 414.904C99.3599 416.665 101.07 419.346 105.93 419.496C112.39 419.696 121.66 419.766 121.66 419.766C123.88 419.616 126.7 418.356 126.33 413.274C126.01 408.852 119.27 408.572 117.54 408.572C117.28 408.572 117.14 408.572 117.14 408.572H117.13ZM137.04 430.931C137.04 430.931 133.87 430.91 130.7 430.91C129.11 430.91 127.52 430.911 126.32 430.931C122.72 430.971 119.37 432.781 119.3 436.553C119.27 438.113 120.98 440.494 125.84 440.624C132.3 440.804 141.57 440.864 141.57 440.864C143.79 440.734 146.61 439.604 146.24 435.102C145.92 431.181 139.18 430.921 137.45 430.921C137.19 430.921 137.05 430.921 137.05 430.921L137.04 430.931Z" fill="black"/>
<path d="M26.3898 260.703C46.6898 260.703 118.36 258.752 121.75 258.662C122.43 258.282 126.66 255.761 128.09 250.569C129.4 245.787 128.03 240.175 124.02 233.882L123.93 233.742V233.572C124.04 232.442 124.16 230.551 124.32 227.92C128.65 156.862 139.73 108.833 157.23 85.1735C186.04 46.2381 194.22 39.4954 194.55 39.2353L194.97 38.9052L201.66 48.549C202.67 47.8387 205.34 46.2281 208.92 46.2281C213.81 46.2281 220.98 49.3293 227.41 64.0552C242.19 65.1156 326.31 71.228 331.07 71.5681C331.81 70.8879 335.11 67.5966 335.19 62.8547C335.26 58.8331 333.04 54.8015 328.61 50.8599C327.33 49.7295 325.97 48.459 324.5 47.0984C308.72 32.4927 282.32 8.05298 218.35 2.70087C205.57 1.63044 190.6 0.48999 174.69 0.48999C129.33 0.48999 97.4698 9.69363 77.2898 28.6211C75.3098 30.4719 73.2898 32.2726 71.1498 34.1833C58.9898 45.0076 45.2098 57.2825 33.2398 85.3736C19.3198 118.037 10.7298 165.705 6.9898 231.091V231.161L6.96981 231.221C6.74981 231.902 6.2098 245.167 12.4598 253.75C15.8198 258.362 20.5098 260.703 26.4098 260.703H26.3898Z" fill="#49370A"/>
<path d="M174.69 1.00039C154.57 1.00039 137.49 2.7811 122.49 6.45255C103.79 11.0244 88.6998 18.6074 77.6298 28.9915C75.6498 30.8522 73.6198 32.6529 71.4798 34.5637C59.3598 45.3579 45.6198 57.5828 33.6898 85.5739C19.7898 118.187 11.2198 165.796 7.47982 231.121V231.232L7.43981 231.362C7.20981 232.292 6.7698 245.687 13.2398 253.981C16.4698 258.112 20.8898 260.203 26.3998 260.203C46.4898 260.203 116.91 258.292 121.62 258.162C122.49 257.662 126.31 255.221 127.62 250.419C128.89 245.777 127.54 240.305 123.6 234.153L123.42 233.863L123.45 233.522C123.55 232.402 123.66 230.511 123.82 227.89C124.59 215.255 126.19 188.955 130.93 160.764C136.83 125.65 145.55 100.12 156.83 84.8736C185.68 45.8782 193.91 39.1055 194.24 38.8354L195.08 38.1651L195.69 39.0454L201.79 47.8489C203.07 47.0286 205.62 45.7181 208.92 45.7181C213.93 45.7181 221.24 48.8293 227.75 63.5652C243.06 64.6656 324.22 70.5579 330.89 71.0481C331.8 70.1678 334.63 67.1066 334.7 62.8249C334.76 58.9633 332.6 55.0518 328.29 51.2203C327.01 50.0798 325.63 48.8093 324.17 47.4588C316.52 40.376 306.03 30.6721 289.47 22.0387C269.9 11.8447 245.96 5.50217 218.31 3.19126C205.54 2.12083 190.58 0.990386 174.69 0.990386M174.69 -0.0100098C191.13 -0.0100098 206.43 1.20047 218.39 2.20087C288.68 8.07319 314.36 37.5148 328.94 50.48C342.64 62.6548 331.24 72.0785 331.24 72.0785C331.24 72.0785 241.37 65.5459 227.07 64.5255C220.83 50.0798 213.96 46.7285 208.91 46.7285C204.53 46.7285 201.53 49.2595 201.53 49.2595L194.85 39.6257C194.85 39.6257 186.72 46.1383 157.62 85.4738C128.51 124.809 125.45 221.868 124.43 233.622C136.17 252.01 121.88 259.163 121.88 259.163C121.88 259.163 47.3298 261.203 26.3898 261.203C5.44982 261.203 5.95982 232.592 6.47982 231.061C15.6698 70.658 52.4398 51.2503 76.9498 28.2612C101.53 5.20205 140.58 -5.80572e-06 174.69 -5.80572e-06V-0.0100098Z" fill="black"/>
<path d="M71.1299 310.823C61.0999 310.763 57.9999 310.823 57.9699 310.823C59.2699 307.872 62.0899 306.711 64.2699 306.621C67.2099 306.491 74.9899 306.621 74.9899 306.621C74.9899 306.621 84.2299 306.331 84.6199 312.594C84.9399 317.806 83.2499 320.717 79.8999 321.337C79.8999 321.337 81.2199 310.883 71.1299 310.823V310.823Z" fill="black" stroke="black" stroke-miterlimit="10"/>
<path d="M82.3699 348.788C72.3399 348.728 68.2499 348.678 68.2199 348.678C69.5199 345.727 73.3199 344.676 75.5099 344.576C78.4499 344.446 86.2299 344.576 86.2299 344.576C86.2299 344.576 95.0399 344.196 95.4199 350.449C95.7399 355.661 94.2499 358.402 90.8999 359.022C90.8999 359.022 92.4499 348.848 82.3699 348.788V348.788Z" fill="black" stroke="black" stroke-miterlimit="10"/>
<path d="M95.8499 381.671C85.8199 381.611 82.2199 381.591 82.1899 381.601C83.4899 378.96 86.8099 377.71 88.9999 377.62C91.9399 377.51 99.7399 377.6 99.7399 377.6C99.7399 377.6 108.95 377.59 109.34 383.202C109.66 387.874 107.59 390.605 104.23 391.165C104.23 391.165 105.93 381.741 95.8399 381.681L95.8499 381.671Z" fill="black" stroke="black" stroke-miterlimit="10"/>
<path d="M113.56 411.693C103.53 411.643 99.5499 411.523 99.5199 411.523C100.82 409.192 104.52 408.452 106.7 408.372C109.64 408.272 117.42 408.372 117.42 408.372C117.42 408.372 126.23 408.071 126.61 413.003C126.93 417.115 125.69 419.716 122.34 420.206C122.34 420.206 123.64 411.743 113.56 411.693V411.693Z" fill="black" stroke="black" stroke-miterlimit="10"/>
<path d="M133.47 433.682C123.44 433.642 119.52 433.652 119.49 433.652C120.79 431.581 124.43 430.571 126.62 430.501C129.56 430.411 137.39 430.481 137.39 430.481C137.39 430.481 146.15 430.461 146.53 434.842C146.85 438.494 145.32 440.915 141.97 441.355C141.97 441.355 143.56 433.722 133.48 433.672L133.47 433.682Z" fill="black" stroke="black" stroke-miterlimit="10"/>
<path d="M222.35 55.3919C222.35 55.3919 224.69 45.2879 210.05 33.3731C195.41 21.4584 177.43 -1.6107 140.52 2.66099" stroke="black" stroke-miterlimit="10"/>
<path d="M60.2599 10.6742C60.2599 10.6742 57.8799 12.595 60.2599 20.0879C62.6399 27.5809 68.7699 43.1771 68.7699 43.1771C68.7699 43.1771 71.6199 50.48 86.8099 51.4203C105.53 53.121 180.79 55.3919 180.79 55.3919C180.79 55.3919 189.75 57.5327 193.35 52.0806" stroke="black" stroke-miterlimit="10"/>
<path d="M74.3299 48.7493L52.9399 80.882" stroke="black" stroke-miterlimit="10"/>
<path d="M224.24 416.265C224.24 416.265 219.91 462.383 148.47 478.199" stroke="black" stroke-miterlimit="10"/>
<path d="M19.9399 287.814C19.9399 287.814 48.3499 399.638 72.5999 430.29C83.8299 444.086 112.58 460.942 128.21 461.193C143.84 461.453 179.07 453.47 190.81 436.093" stroke="black" stroke-miterlimit="10"/>
<path d="M194.79 38.6053C128.55 -13.1552 90.9199 31.9727 83.7499 41.1163C69.5399 59.2535 23.6499 111.354 17.6599 231.001" stroke="black" stroke-miterlimit="10"/>
<path d="M92.5799 17.4068C92.5799 17.4068 70.4899 15.8062 69.5399 16.7666C68.5899 17.727 75.5399 41.4163 77.7099 42.3067C79.8799 43.1971 184.43 48.179 184.43 48.179C184.43 48.179 186.98 47.8789 186.98 46.3683C186.98 44.8577 191.58 43.067 191.58 43.067C191.58 43.067 195.92 49.9597 191.58 56.6024C187.24 63.245 172.77 83.2529 170.65 84.4434C168.53 85.6339 55.3299 82.4126 52.9499 80.872C50.5699 79.3314 39.6699 46.3683 39.6699 46.3683C39.6699 46.3683 37.3699 40.516 41.9699 34.3836C46.5699 28.2511 58.3099 12.675 58.3099 12.675C58.3099 12.675 60.6999 8.33325 68.5199 8.33325C78.7299 8.33325 106.49 10.3541 106.49 10.3541L92.5899 17.4068H92.5799Z" fill="#49370A" stroke="black" stroke-miterlimit="10"/>
<path d="M227.07 64.5356C227.07 64.5356 218.67 41.2464 204.6 47.4188C190.64 53.5512 202.12 72.0886 202.12 72.0886L227.07 64.5356Z" fill="#957932" stroke="black" stroke-miterlimit="10"/>
<path d="M353.1 73.4391C353.1 73.4391 337.24 53.1711 333.29 55.5921C334.44 58.023 335.33 69.4175 331.25 72.0886C334.06 76.1602 353.11 73.4391 353.11 73.4391" fill="#957932"/>
<path d="M353.1 73.4391C353.1 73.4391 337.24 53.1711 333.29 55.5921C334.44 58.023 335.33 69.4175 331.25 72.0886C334.06 76.1602 353.11 73.4391 353.11 73.4391" stroke="black" stroke-miterlimit="10"/>
<path d="M231.93 402.729C231.93 402.729 223.24 427.999 208.18 420.847C193.12 413.694 205.33 397.798 205.33 397.798C205.33 397.798 232.45 397.387 231.93 402.729Z" fill="#957932" stroke="black" stroke-miterlimit="10"/>
<path d="M354.26 395.887C354.26 395.887 341.95 415.985 338.03 412.753C339.14 408.071 336.26 399.048 336.26 399.048C336.26 399.048 351.97 391.665 354.26 395.887" fill="#957932"/>
<path d="M354.26 395.887C354.26 395.887 341.95 415.985 338.03 412.753C339.14 408.071 336.26 399.048 336.26 399.048C336.26 399.048 351.97 391.665 354.26 395.887" stroke="black" stroke-miterlimit="10"/>
<path d="M230.25 402.249C231.05 402.249 231.85 402.239 232.67 402.209C242.66 401.909 253.2 401.849 264.36 401.789C319.74 401.479 382.5 401.129 396.38 369.916C402.5 352.249 403.05 124.649 403.06 122.348C403.06 122.218 403.42 110.924 397.67 99.3891C392.38 88.7749 380.65 75.7598 354.87 74.0491C305.03 70.7578 227.81 65.0855 227.04 65.0255C226.98 65.0355 212.96 66.346 199.12 74.2592C186.39 81.5321 171.2 96.0678 171.16 123.959C171.07 177.82 172.76 337.243 172.77 338.844C172.77 339.004 172.86 354.92 179.99 370.616C189.52 391.605 206.44 402.239 230.27 402.239L230.25 402.249Z" fill="#957932"/>
<path d="M227.08 65.5359C225.95 65.646 212.55 67.1466 199.33 74.7196C191.3 79.3114 184.9 85.2237 180.32 92.2665C174.59 101.08 171.67 111.744 171.65 123.959C171.56 177.82 173.24 337.233 173.26 338.854C173.26 339.014 173.34 354.79 180.42 370.387C184.56 379.5 190.24 386.763 197.32 391.955C206.16 398.448 217.25 401.749 230.26 401.749C231.05 401.749 231.86 401.739 232.66 401.709C242.65 401.409 253.19 401.349 264.35 401.289C319.55 400.979 382.12 400.629 395.91 369.756C402 351.839 402.56 124.649 402.56 122.318C402.56 122.208 402.91 111.004 397.2 99.5794C389.58 84.3234 375.32 75.91 354.83 74.5495C305.73 71.3082 230.06 65.746 227.08 65.5259M227.07 64.5255C227.07 64.5255 304.49 70.2178 354.9 73.5491C405.31 76.8904 403.56 122.358 403.56 122.358C403.56 122.358 403.07 352.139 396.84 370.126C380.06 407.861 293.12 400.909 232.69 402.719C231.87 402.739 231.06 402.759 230.26 402.759C172.27 402.759 172.27 338.864 172.27 338.864C172.27 338.864 170.57 178.461 170.66 123.969C170.75 69.4775 227.08 64.5455 227.08 64.5455L227.07 64.5255Z" fill="black"/>
<path d="M187.53 295.627C195.92 295.577 196.26 287.904 196.27 287.584L196.11 261.263C196.11 261.263 196.1 258.432 194.04 256.361C192.52 254.841 190.29 254.07 187.38 254.07C184.34 254.09 182.08 254.881 180.57 256.431C178.53 258.532 178.55 261.333 178.55 261.363L178.71 287.854C178.72 288.154 179.15 295.637 187.45 295.637H187.53V295.627Z" fill="#957932"/>
<path d="M187.37 253.57V254.571H187.28C184.48 254.591 182.35 255.331 180.93 256.772C179.03 258.712 179.04 261.333 179.04 261.374L179.2 287.814C179.21 288.114 179.64 295.137 187.44 295.137H187.52C195.41 295.087 195.75 287.884 195.76 287.614L195.6 261.263C195.6 260.993 195.51 254.571 187.37 254.571V253.57M187.37 253.57C196.66 253.57 196.6 261.263 196.6 261.263L196.76 287.604C196.76 287.604 196.52 296.087 187.53 296.137C187.5 296.137 187.47 296.137 187.44 296.137C178.55 296.137 178.2 287.854 178.2 287.854L178.04 261.374C178.04 261.374 177.87 253.62 187.27 253.57C187.3 253.57 187.34 253.57 187.37 253.57V253.57Z" fill="black"/>
<path d="M185.89 224.819C194.3 224.659 194.52 216.986 194.52 216.666L194.03 190.345C194.03 190.055 193.87 183.262 185.41 183.262H185.11C182.17 183.322 179.92 184.143 178.43 185.713C176.41 187.834 176.47 190.645 176.47 190.675L176.97 217.156C176.99 217.456 177.5 224.829 185.63 224.829H185.89V224.819Z" fill="#957932"/>
<path d="M185.42 183.753C185.32 183.753 185.23 183.753 185.13 183.753C182.33 183.803 180.21 184.573 178.81 186.034C176.93 187.994 176.98 190.615 176.98 190.655L177.47 217.096C177.49 217.386 177.95 224.309 185.63 224.309H185.88C193.77 224.159 194.02 216.946 194.02 216.676L193.53 190.335C193.53 190.065 193.35 183.753 185.41 183.753M185.41 182.752C194.49 182.752 194.53 190.325 194.53 190.325L195.02 216.656C195.02 216.656 194.88 225.139 185.9 225.309C185.81 225.309 185.72 225.309 185.63 225.309C176.91 225.309 176.47 217.146 176.47 217.146L175.98 190.675C175.98 190.675 175.71 182.932 185.11 182.752C185.22 182.752 185.32 182.752 185.42 182.752H185.41Z" fill="black"/>
<path d="M65.4699 282.692C75.6999 282.692 75.9799 280.821 76.3799 278.23L76.4499 277.8C76.9499 274.749 76.4499 262.374 76.4499 262.254L76.4299 261.753L76.9299 261.733C76.9799 261.733 82.4399 261.423 85.5699 256.821C88.5699 252.41 88.5499 245.637 85.5299 236.683H64.8599C65.7799 239.965 69.1499 254.541 58.0199 259.883L57.9499 259.923H57.8699C57.2499 260.013 56.6299 260.053 56.0399 260.053C55.5999 260.053 55.2299 260.033 54.9599 260.003L53.9599 278.04L53.8999 278.14C53.8999 278.14 53.4299 279.04 53.9799 279.981C54.5399 280.931 56.5399 282.552 63.6899 282.692C64.3199 282.702 64.9199 282.712 65.4799 282.712L65.4699 282.692Z" fill="#957932"/>
<path d="M65.4999 237.174C66.5999 241.476 69.0799 255.111 58.2299 260.323L58.0799 260.393L57.9199 260.413C57.2799 260.493 56.6399 260.533 56.0299 260.533C55.8099 260.533 55.5999 260.533 55.4199 260.523L54.4599 277.94L54.4399 278.17L54.3399 278.36C54.2999 278.43 54.0099 279.05 54.4099 279.731C54.8199 280.421 56.5499 282.042 63.6899 282.182C64.3199 282.192 64.9099 282.202 65.4799 282.202C70.1299 282.202 73.0799 281.792 74.4999 280.941C75.5199 280.331 75.6699 279.611 75.8899 278.16L75.9599 277.72C76.4499 274.719 75.9599 262.394 75.9499 262.274L75.9099 261.283L76.8999 261.233C76.9499 261.233 82.1699 260.923 85.1499 256.532C88.0099 252.31 88.0099 245.807 85.1599 237.184H65.4999M64.1799 236.183H85.8799C94.5599 261.473 76.9399 262.234 76.9399 262.234C76.9399 262.234 77.4499 274.749 76.9399 277.88C76.4499 280.861 76.6599 283.192 65.4699 283.192C64.8999 283.192 64.2999 283.192 63.6599 283.172C50.6399 282.912 53.4499 277.88 53.4499 277.88L54.4699 259.423C54.4699 259.423 55.0399 259.533 56.0199 259.533C56.5099 259.533 57.1099 259.503 57.7899 259.423C70.0499 253.55 64.1699 236.183 64.1699 236.183H64.1799Z" fill="black"/>
<path d="M18.3899 344.867C20.3099 344.867 22.1199 344.466 22.9499 344.256C19.7699 332.872 15.9499 284.983 23.8399 256.281C24.4699 241.526 21.7099 235.403 19.2799 232.862C17.9499 231.472 16.3699 230.771 14.5899 230.771C8.70988 230.771 1.64988 238.564 0.849883 245.937C-1.56012 302.98 8.99989 333.682 12.2899 341.735C13.1399 343.816 15.1899 344.877 18.3799 344.877L18.3899 344.867Z" fill="#957932"/>
<path d="M14.5999 231.261C8.93992 231.261 2.14993 238.804 1.35993 245.957C-1.04007 302.91 9.47992 333.512 12.7599 341.545C13.5299 343.426 15.4199 344.376 18.3899 344.376C19.9399 344.376 21.4199 344.106 22.3399 343.896C19.1799 331.631 15.5699 284.593 23.3499 256.201C23.9599 241.656 21.2899 235.673 18.9299 233.202C17.6999 231.922 16.2399 231.261 14.5999 231.261M14.5999 230.261C20.2299 230.261 25.1899 236.814 24.3499 256.351C16.1799 285.983 20.5199 334.642 23.5799 344.596C23.5799 344.596 21.1099 345.367 18.3899 345.367C15.6699 345.367 12.9599 344.666 11.8299 341.915C9.52993 336.293 -2.18007 305.901 0.359932 245.877C1.15993 238.464 8.29992 230.261 14.5999 230.261V230.261Z" fill="black"/>
<path d="M126.26 328.45C127.38 328.45 128.12 328.24 128.47 328.11C128.78 322.808 132.3 265.085 137.28 256.861C140.22 252.01 139.79 242.726 136.34 236.593C134.74 233.762 131.82 230.381 126.94 230.381C126.09 230.381 125.2 230.491 124.29 230.701C124.22 231.201 124.17 232.472 124.17 233.592C124.9 234.893 130.54 245.297 127.17 252.68C125.63 256.051 122.46 258.242 117.72 259.212C117.32 261.963 115.06 282.011 124.8 328.35C125.3 328.42 125.79 328.46 126.25 328.46L126.26 328.45Z" fill="#957932"/>
<path d="M126.94 229.881V230.881C126.23 230.881 125.5 230.961 124.75 231.111C124.7 231.672 124.67 232.612 124.67 233.462C125.64 235.213 131.01 245.477 127.63 252.89C126.06 256.331 122.88 258.592 118.17 259.633C117.69 263.364 115.89 283.372 125.22 327.91C125.58 327.95 125.92 327.97 126.26 327.97C127.05 327.97 127.62 327.86 127.99 327.76C128.41 320.707 131.9 264.795 136.86 256.622C139.72 251.9 139.28 242.856 135.91 236.864C134.38 234.143 131.58 230.901 126.95 230.901V229.901M126.95 229.901C138.86 229.901 142.45 249.339 137.72 257.142C132.61 265.575 128.96 328.47 128.96 328.47C128.96 328.47 128.08 328.97 126.27 328.97C125.73 328.97 125.11 328.92 124.4 328.81C113.68 277.97 117.29 258.802 117.29 258.802C136.18 255.231 123.67 233.743 123.67 233.743C123.67 233.743 123.67 230.291 123.93 230.291C124.99 230.021 126 229.901 126.95 229.901V229.901Z" fill="black"/>
<path d="M205.32 332.722L201.53 130.602C201.53 130.602 203.06 78.321 250.55 79.3414C298.04 80.3618 355.74 84.4534 355.74 84.4534C355.74 84.4534 403.74 76.7904 405.78 141.156C407.82 205.521 407.83 329.66 407.83 329.66C407.83 329.66 411.23 379.89 359.32 382.792C297.02 386.263 258.72 387.393 258.72 387.393C258.72 387.393 206.31 385.833 205.32 332.732V332.722Z" fill="#EDE3BF" stroke="black" stroke-miterlimit="10"/>
<path d="M310.99 305.421H317.81V334.422H320.17V305.421H326.92L326.9 304.421H311V305.421H310.99Z" fill="black"/>
<path d="M306.52 311.743H313.34V340.745H315.7V311.743H322.45L322.43 310.743H306.53V311.743H306.52Z" fill="black"/>
<path d="M367.247 169.46C370.927 163.94 375.087 161.46 380.767 161.46C386.367 161.46 390.527 163.94 394.207 169.46C397.647 174.66 399.407 181.62 399.407 190.26C399.407 198.82 397.647 205.78 394.207 211.06C390.527 216.58 386.367 219.06 380.767 219.06C375.087 219.06 370.927 216.58 367.247 210.98C363.807 205.78 362.047 198.74 362.047 190.26C362.047 181.7 363.807 174.74 367.247 169.46ZM380.767 215.7C383.807 215.7 385.967 214.42 387.967 211.46C389.807 208.58 391.807 201.46 391.807 190.26C391.807 178.98 389.807 171.86 387.887 169.06C385.967 166.1 383.807 164.82 380.767 164.82C377.647 164.82 375.487 166.1 373.567 169.06C371.727 171.94 369.727 178.98 369.727 190.26C369.727 201.86 372.127 208.34 373.167 210.66C374.767 214.26 377.007 215.7 380.767 215.7ZM327.35 169.46C331.03 163.94 335.19 161.46 340.87 161.46C346.47 161.46 350.63 163.94 354.31 169.46C357.75 174.66 359.51 181.62 359.51 190.26C359.51 198.82 357.75 205.78 354.31 211.06C350.63 216.58 346.47 219.06 340.87 219.06C335.19 219.06 331.03 216.58 327.35 210.98C323.91 205.78 322.15 198.74 322.15 190.26C322.15 181.7 323.91 174.74 327.35 169.46ZM340.87 215.7C343.91 215.7 346.07 214.42 348.07 211.46C349.91 208.58 351.91 201.46 351.91 190.26C351.91 178.98 349.91 171.86 347.99 169.06C346.07 166.1 343.91 164.82 340.87 164.82C337.75 164.82 335.59 166.1 333.67 169.06C331.83 171.94 329.83 178.98 329.83 190.26C329.83 201.86 332.23 208.34 333.27 210.66C334.87 214.26 337.11 215.7 340.87 215.7ZM320.333 216.02C320.333 217.22 319.853 218.26 319.053 219.14C318.173 220.02 317.133 220.42 315.933 220.42C314.733 220.42 313.693 220.02 312.813 219.14C311.933 218.34 311.533 217.22 311.533 216.02C311.533 214.82 311.933 213.78 312.813 212.98C313.693 212.1 314.733 211.7 315.933 211.7C317.133 211.7 318.173 212.1 319.053 212.98C319.853 213.78 320.333 214.82 320.333 216.02ZM320.333 187.7C320.333 188.9 319.853 189.94 319.053 190.82C318.173 191.7 317.133 192.1 315.933 192.1C314.733 192.1 313.693 191.7 312.813 190.82C311.933 189.94 311.533 188.9 311.533 187.7C311.533 186.5 311.933 185.46 312.813 184.58C313.693 183.78 314.733 183.3 315.933 183.3C317.213 183.3 318.253 183.78 319.053 184.66C319.853 185.54 320.333 186.58 320.333 187.7ZM276.463 169.46C280.143 163.94 284.303 161.46 289.983 161.46C295.583 161.46 299.743 163.94 303.423 169.46C306.863 174.66 308.623 181.62 308.623 190.26C308.623 198.82 306.863 205.78 303.423 211.06C299.743 216.58 295.583 219.06 289.983 219.06C284.303 219.06 280.143 216.58 276.463 210.98C273.023 205.78 271.263 198.74 271.263 190.26C271.263 181.7 273.023 174.74 276.463 169.46ZM289.983 215.7C293.023 215.7 295.183 214.42 297.183 211.46C299.023 208.58 301.023 201.46 301.023 190.26C301.023 178.98 299.023 171.86 297.103 169.06C295.183 166.1 293.023 164.82 289.983 164.82C286.863 164.82 284.703 166.1 282.783 169.06C280.943 171.94 278.943 178.98 278.943 190.26C278.943 201.86 281.343 208.34 282.383 210.66C283.983 214.26 286.223 215.7 289.983 215.7ZM235.042 167.6C238.86 161.873 243.176 159.3 249.069 159.3C254.879 159.3 259.195 161.873 263.013 167.6C266.582 172.995 268.408 180.216 268.408 189.18C268.408 198.061 266.582 205.282 263.013 210.76C259.195 216.487 254.879 219.06 249.069 219.06C243.176 219.06 238.86 216.487 235.042 210.677C231.473 205.282 229.647 197.978 229.647 189.18C229.647 180.299 231.473 173.078 235.042 167.6ZM249.069 215.574C252.223 215.574 254.464 214.246 256.539 211.175C258.448 208.187 260.523 200.8 260.523 189.18C260.523 177.477 258.448 170.09 256.456 167.185C254.464 164.114 252.223 162.786 249.069 162.786C245.832 162.786 243.591 164.114 241.599 167.185C239.69 170.173 237.615 177.477 237.615 189.18C237.615 201.215 240.105 207.938 241.184 210.345C242.844 214.08 245.168 215.574 249.069 215.574Z" fill="black"/>
<g clip-path="url(#clip1_17_383)">
<path d="M266.44 254.621C269.118 254.871 271.556 256.446 273.447 258.914L268.598 266.078C267.974 265.396 267.24 264.935 266.44 264.762V254.621Z" fill="#BBBDBF"/>
<path d="M277.38 272.954C277.217 276.911 276.145 280.513 274.481 283.307L269.632 276.143C270.093 275.221 270.405 274.136 270.522 272.954H277.38V272.954Z" fill="#929497"/>
<path d="M274.474 260.441C276.145 263.236 277.217 266.827 277.38 270.794H270.522C270.399 269.612 270.087 268.527 269.625 267.605L274.474 260.441Z" fill="#A6A8AB"/>
<path d="M257.964 258.914C259.862 256.446 262.293 254.871 264.978 254.621V264.762C264.178 264.935 263.444 265.406 262.82 266.078L257.971 258.914H257.964Z" fill="#231F20"/>
<path d="M261.78 276.143L256.931 283.307C255.26 280.513 254.194 276.911 254.032 272.954H260.889C261.013 274.136 261.325 275.221 261.78 276.143V276.143Z" fill="#58595B"/>
<path d="M254.032 270.794C254.194 266.837 255.267 263.236 256.937 260.441L261.786 267.605C261.325 268.527 261.013 269.612 260.896 270.794H254.038H254.032Z" fill="#404041"/>
<path d="M273.441 284.834C271.549 287.303 269.112 288.878 266.434 289.118V278.986C267.233 278.803 267.968 278.342 268.592 277.67L273.441 284.834Z" fill="#808284"/>
<path d="M264.978 289.118C262.3 288.878 259.862 287.293 257.971 284.834L262.82 277.67C263.444 278.352 264.178 278.813 264.978 278.995V289.127V289.118Z" fill="#6D6E70"/>
</g>
<g clip-path="url(#clip2_17_383)">
<path style="mix-blend-mode:multiply" d="M339.472 286.173C339.472 288.174 344.507 289.795 350.723 289.795C356.938 289.795 361.97 288.174 361.97 286.173C361.97 284.173 356.934 282.552 350.719 282.552C344.504 282.552 339.469 284.173 339.469 286.173H339.472Z" fill="url(#paint0_radial_17_383)"/>
<path d="M350.719 286.754C356.877 286.754 361.885 279.386 361.885 270.332C361.885 261.278 356.877 253.906 350.719 253.906C344.562 253.906 339.554 261.273 339.554 270.332C339.554 279.391 344.562 286.759 350.719 286.759V286.754Z" fill="url(#paint1_radial_17_383)"/>
<path d="M350.719 254.031C344.609 254.031 339.639 261.344 339.639 270.332C339.639 279.321 344.609 286.634 350.719 286.634C356.829 286.634 361.8 279.321 361.8 270.332C361.8 261.344 356.829 254.031 350.719 254.031ZM350.719 253.781C356.934 253.781 361.97 261.188 361.97 270.332C361.97 279.476 356.934 286.884 350.719 286.884C344.504 286.884 339.469 279.476 339.469 270.332C339.469 261.188 344.507 253.781 350.719 253.781Z" fill="#8C98A0"/>
<path style="mix-blend-mode:screen" opacity="0.6" d="M350.797 273.733C350.797 276.97 352.579 279.591 354.779 279.591C356.979 279.591 358.76 276.97 358.76 273.733C358.76 270.497 356.979 267.876 354.779 267.876C352.579 267.876 350.797 270.497 350.797 273.733Z" fill="url(#paint2_radial_17_383)"/>
<path style="mix-blend-mode:screen" opacity="0.8" d="M354.752 263.634C354.752 264.41 355.18 265.04 355.707 265.04C356.234 265.04 356.662 264.41 356.662 263.634C356.662 262.859 356.234 262.229 355.707 262.229C355.18 262.229 354.752 262.859 354.752 263.634Z" fill="url(#paint3_radial_17_383)"/>
<path style="mix-blend-mode:screen" opacity="0.8" d="M354.486 275.174C354.486 276.38 355.149 277.355 355.969 277.355C356.788 277.355 357.451 276.38 357.451 275.174C357.451 273.969 356.788 272.988 355.969 272.988C355.149 272.988 354.486 273.969 354.486 275.174Z" fill="url(#paint4_radial_17_383)"/>
<path style="mix-blend-mode:screen" opacity="0.8" d="M347.476 261.118C347.476 262.574 348.278 263.75 349.264 263.75C350.25 263.75 351.052 262.569 351.052 261.118C351.052 259.668 350.253 258.487 349.264 258.487C348.275 258.487 347.476 259.668 347.476 261.118Z" fill="url(#paint5_radial_17_383)"/>
<path style="mix-blend-mode:screen" d="M349.539 266.621C349.539 266.921 349.703 267.161 349.907 267.161C350.111 267.161 350.274 266.921 350.274 266.621C350.274 266.321 350.111 266.08 349.907 266.08C349.703 266.08 349.539 266.321 349.539 266.621Z" fill="url(#paint6_radial_17_383)"/>
<path style="mix-blend-mode:screen" d="M352.776 267.581C352.776 268.196 353.116 268.691 353.531 268.691C353.946 268.691 354.286 268.191 354.286 267.581C354.286 266.971 353.946 266.471 353.531 266.471C353.116 266.471 352.776 266.971 352.776 267.581Z" fill="url(#paint7_radial_17_383)"/>
<path style="mix-blend-mode:screen" opacity="0.8" d="M339.989 269.232C339.989 273.488 342.335 276.94 345.232 276.94C348.128 276.94 350.471 273.488 350.471 269.232C350.471 264.975 348.125 261.519 345.232 261.519C342.338 261.519 339.989 264.97 339.989 269.232V269.232Z" fill="url(#paint8_radial_17_383)"/>
<path style="mix-blend-mode:screen" d="M349.628 272.548C346.337 267.606 342.634 265.03 341.169 266.596C341.209 266.516 341.25 266.445 341.298 266.375C342.641 264.44 346.496 267.021 349.91 272.143C353.324 277.265 355 282.987 353.653 284.923C353.606 284.993 353.555 285.053 353.5 285.113C354.592 282.992 352.916 277.495 349.624 272.553L349.628 272.548Z" fill="url(#paint9_linear_17_383)"/>
<path style="mix-blend-mode:screen" opacity="0.4" d="M348.635 271.357C347 263.384 346.972 256.272 348.536 255.066C348.472 255.076 348.407 255.091 348.346 255.121C346.605 255.911 346.568 263.254 348.264 271.523C349.961 279.791 352.749 285.848 354.49 285.058C354.551 285.028 354.612 284.993 354.667 284.948C352.919 285.248 350.267 279.331 348.632 271.357H348.635Z" fill="url(#paint10_linear_17_383)"/>
<path style="mix-blend-mode:screen" opacity="0.7" d="M351.212 277.92C356.084 275.959 359.692 272.348 359.495 269.697C359.522 269.787 359.546 269.877 359.563 269.972C360.059 272.643 356.367 276.454 351.314 278.485C346.262 280.516 341.767 279.996 341.271 277.33C341.254 277.235 341.243 277.14 341.237 277.04C341.985 279.466 346.34 279.881 351.212 277.92V277.92Z" fill="url(#paint11_linear_17_383)"/>
<path style="mix-blend-mode:screen" d="M351.345 261.834C346.748 260.388 342.671 261.408 342.008 264.105C342.012 264 342.022 263.894 342.036 263.789C342.461 260.873 346.666 259.723 351.433 261.218C356.2 262.714 359.722 266.295 359.301 269.212C359.287 269.317 359.263 269.417 359.24 269.517C359.382 266.661 355.942 263.284 351.345 261.839V261.834Z" fill="url(#paint12_linear_17_383)"/>
<path style="mix-blend-mode:screen" d="M346.537 265.65C343.073 272.343 342.257 280.071 344.606 283.302C344.507 283.212 344.405 283.117 344.31 283.007C341.634 280.011 342.379 271.953 345.969 265.015C349.563 258.077 354.646 254.881 357.319 257.877C357.414 257.982 357.502 258.097 357.587 258.217C354.847 255.746 349.998 258.958 346.534 265.65H346.537Z" fill="url(#paint13_linear_17_383)"/>
<path style="mix-blend-mode:screen" d="M355.88 270.787C356.05 262.804 354.412 256.206 352.178 255.646C352.259 255.631 352.344 255.626 352.426 255.631C354.782 255.741 356.55 262.534 356.377 270.807C356.2 279.081 354.146 285.703 351.79 285.593C351.705 285.593 351.624 285.573 351.542 285.553C353.793 285.203 355.71 278.765 355.877 270.782L355.88 270.787Z" fill="url(#paint14_linear_17_383)"/>
<path style="mix-blend-mode:screen" opacity="0.7" d="M347.608 282.172C352.103 284.553 356.377 284.033 357.393 281.066C357.376 281.186 357.353 281.301 357.325 281.421C356.526 284.688 352.1 285.333 347.442 282.862C342.78 280.391 339.652 275.744 340.451 272.483C340.478 272.368 340.512 272.258 340.55 272.148C340.047 275.384 343.117 279.796 347.612 282.172H347.608Z" fill="url(#paint15_linear_17_383)"/>
<g style="mix-blend-mode:screen">
<path d="M344.001 260.883C344.001 263.659 347.01 265.915 350.723 265.915C354.435 265.915 357.441 263.659 357.441 260.883C357.441 258.107 354.432 255.851 350.719 255.851C347.006 255.851 343.997 258.102 343.997 260.883H344.001Z" fill="url(#paint16_linear_17_383)"/>
</g>
</g>
<g clip-path="url(#clip3_17_383)">
<path d="M306.87 290.788C313.813 290.788 319.457 282.363 319.457 272.018C319.457 261.672 313.813 253.248 306.87 253.248C299.927 253.248 294.282 261.665 294.282 272.018C294.282 282.371 299.927 290.788 306.87 290.788Z" fill="url(#paint17_linear_17_383)"/>
<path d="M306.87 253.445C300.001 253.445 294.415 261.775 294.415 272.018C294.415 282.26 300.001 290.59 306.87 290.59C313.739 290.59 319.325 282.26 319.325 272.018C319.325 261.775 313.739 253.445 306.87 253.445ZM306.87 253.05C313.898 253.05 319.59 261.538 319.59 272.018C319.59 282.497 313.898 290.985 306.87 290.985C299.842 290.985 294.15 282.497 294.15 272.018C294.15 261.538 299.842 253.05 306.87 253.05Z" fill="#B2B4B7"/>
<path d="M297.595 272.018C297.595 279.66 301.745 285.848 306.87 285.848C311.995 285.848 316.145 279.66 316.145 272.018C316.145 264.375 311.995 258.187 306.87 258.187C301.745 258.187 297.595 264.375 297.595 272.018Z" fill="url(#paint18_linear_17_383)"/>
<path d="M306.87 283.477C311.11 283.477 314.555 278.332 314.555 272.018C314.555 265.703 311.11 260.558 306.87 260.558C302.63 260.558 299.185 265.695 299.185 272.018C299.185 278.34 302.63 283.477 306.87 283.477Z" fill="url(#paint19_radial_17_383)"/>
<path d="M306.87 260.953C302.778 260.953 299.45 265.916 299.45 272.018C299.45 278.119 302.778 283.082 306.87 283.082C310.961 283.082 314.29 278.119 314.29 272.018C314.29 265.916 310.961 260.953 306.87 260.953ZM306.87 260.163C311.264 260.163 314.82 265.466 314.82 272.018C314.82 278.569 311.264 283.872 306.87 283.872C302.476 283.872 298.92 278.561 298.92 272.018C298.92 265.474 302.481 260.163 306.87 260.163Z" fill="#8C98A0"/>
<g style="mix-blend-mode:multiply" opacity="0.8">
<path d="M302.148 262.494C302.1 263.024 302.063 263.561 302.063 264.115C302.063 270.658 305.619 275.969 310.013 275.969C311.783 275.969 313.41 275.092 314.735 273.638C314.205 279.415 310.887 283.872 306.87 283.872C302.481 283.872 298.92 278.561 298.92 272.018C298.92 268.114 300.192 264.652 302.148 262.494Z" fill="url(#paint20_linear_17_383)"/>
</g>
</g>
</g>
<defs>
<radialGradient id="paint0_radial_17_383" cx="0" cy="0" r="1" gradientUnits="userSpaceOnUse" gradientTransform="translate(351.701 287.318) rotate(180) scale(11.221 3.62018)">
<stop offset="0.1" stop-color="#DADADA" stop-opacity="0.95"/>
<stop offset="1" stop-color="white" stop-opacity="0"/>
</radialGradient>
<radialGradient id="paint1_radial_17_383" cx="0" cy="0" r="1" gradientUnits="userSpaceOnUse" gradientTransform="translate(350.753 282.522) rotate(180) scale(11.5974 17.0618)">
<stop stop-color="white"/>
<stop offset="1" stop-color="#B1BFC7"/>
</radialGradient>
<radialGradient id="paint2_radial_17_383" cx="0" cy="0" r="1" gradientUnits="userSpaceOnUse" gradientTransform="translate(354.779 273.733) rotate(180) scale(3.9814 5.85732)">
<stop offset="0.11" stop-color="white"/>
<stop offset="0.95"/>
</radialGradient>
<radialGradient id="paint3_radial_17_383" cx="0" cy="0" r="1" gradientUnits="userSpaceOnUse" gradientTransform="translate(355.707 263.629) rotate(180) scale(0.9554 1.40556)">
<stop offset="0.11" stop-color="white"/>
<stop offset="0.95"/>
</radialGradient>
<radialGradient id="paint4_radial_17_383" cx="0" cy="0" r="1" gradientUnits="userSpaceOnUse" gradientTransform="translate(355.969 275.169) rotate(180) scale(1.4824 2.18086)">
<stop offset="0.11" stop-color="white"/>
<stop offset="0.95"/>
</radialGradient>
<radialGradient id="paint5_radial_17_383" cx="0" cy="0" r="1" gradientUnits="userSpaceOnUse" gradientTransform="translate(349.264 261.118) rotate(180) scale(1.7884 2.63104)">
<stop offset="0.11" stop-color="white"/>
<stop offset="0.95"/>
</radialGradient>
<radialGradient id="paint6_radial_17_383" cx="0" cy="0" r="1" gradientUnits="userSpaceOnUse" gradientTransform="translate(349.907 266.621) rotate(180) scale(0.3672 0.540214)">
<stop offset="0.11" stop-color="white"/>
<stop offset="0.95"/>
</radialGradient>
<radialGradient id="paint7_radial_17_383" cx="0" cy="0" r="1" gradientUnits="userSpaceOnUse" gradientTransform="translate(353.531 267.581) rotate(180) scale(0.7548 1.11044)">
<stop offset="0.11" stop-color="white"/>
<stop offset="0.95"/>
</radialGradient>
<radialGradient id="paint8_radial_17_383" cx="0" cy="0" r="1" gradientUnits="userSpaceOnUse" gradientTransform="translate(345.232 269.232) rotate(180) scale(5.2394 7.70805)">
<stop offset="0.11" stop-color="white"/>
<stop offset="0.95"/>
</radialGradient>
<linearGradient id="paint9_linear_17_383" x1="355.961" y1="266.535" x2="372.324" y2="278.521" gradientUnits="userSpaceOnUse">
<stop/>
<stop offset="0.6" stop-color="white"/>
<stop offset="0.9"/>
</linearGradient>
<linearGradient id="paint10_linear_17_383" x1="795.619" y1="-1489.7" x2="809.894" y2="-1469.58" gradientUnits="userSpaceOnUse">
<stop/>
<stop offset="0.6" stop-color="white"/>
<stop offset="0.9"/>
</linearGradient>
<linearGradient id="paint11_linear_17_383" x1="483.283" y1="-29.2426" x2="465.444" y2="-26.7358" gradientUnits="userSpaceOnUse">
<stop/>
<stop offset="0.6" stop-color="white"/>
<stop offset="0.9"/>
</linearGradient>
<linearGradient id="paint12_linear_17_383" x1="342.464" y1="261.564" x2="360.307" y2="264.025" gradientUnits="userSpaceOnUse">
<stop/>
<stop offset="0.6" stop-color="white"/>
<stop offset="0.9"/>
</linearGradient>
<linearGradient id="paint13_linear_17_383" x1="-318.223" y1="-2819.92" x2="-297.182" y2="-2845.08" gradientUnits="userSpaceOnUse">
<stop/>
<stop offset="0.6" stop-color="white"/>
<stop offset="0.9"/>
</linearGradient>
<linearGradient id="paint14_linear_17_383" x1="348.568" y1="245.635" x2="347.801" y2="276.026" gradientUnits="userSpaceOnUse">
<stop/>
<stop offset="0.6" stop-color="white"/>
<stop offset="0.9"/>
</linearGradient>
<linearGradient id="paint15_linear_17_383" x1="-99.9061" y1="671.045" x2="-119.279" y2="667.358" gradientUnits="userSpaceOnUse">
<stop/>
<stop offset="0.6" stop-color="white"/>
<stop offset="0.9"/>
</linearGradient>
<linearGradient id="paint16_linear_17_383" x1="353.071" y1="269.006" x2="353.071" y2="282.304" gradientUnits="userSpaceOnUse">
<stop stop-color="white"/>
<stop offset="1"/>
</linearGradient>
<linearGradient id="paint17_linear_17_383" x1="310.84" y1="257.8" x2="293.104" y2="286.367" gradientUnits="userSpaceOnUse">
<stop stop-color="white"/>
<stop offset="1" stop-color="#D4D6D7"/>
</linearGradient>
<linearGradient id="paint18_linear_17_383" x1="299.1" y1="286.449" x2="318.184" y2="270.51" gradientUnits="userSpaceOnUse">
<stop stop-color="white"/>
<stop offset="1" stop-color="#B8BABC"/>
</linearGradient>
<radialGradient id="paint19_radial_17_383" cx="0" cy="0" r="1" gradientUnits="userSpaceOnUse" gradientTransform="translate(308.9 266.691) rotate(180) scale(8.1408 12.1392)">
<stop stop-color="white"/>
<stop offset="1" stop-color="#B1BFC7"/>
</radialGradient>
<linearGradient id="paint20_linear_17_383" x1="308.073" y1="268.912" x2="298.322" y2="280.196" gradientUnits="userSpaceOnUse">
<stop stop-color="white"/>
<stop offset="1" stop-color="#B7C6CE"/>
</linearGradient>
<clipPath id="clip0_17_383">
<rect width="408.38" height="480" fill="white" transform="matrix(-1 0 0 1 408.38 0)"/>
</clipPath>
<clipPath id="clip1_17_383">
<rect width="23.348" height="34.4969" fill="white" transform="matrix(-1 0 0 1 277.38 254.621)"/>
</clipPath>
<clipPath id="clip2_17_383">
<rect width="22.4978" height="36.0143" fill="white" transform="matrix(-1 0 0 1 361.97 253.781)"/>
</clipPath>
<clipPath id="clip3_17_383">
<rect width="25.44" height="37.935" fill="white" transform="matrix(-1 0 0 1 319.59 253.05)"/>
</clipPath>
</defs>
</svg>
