<svg width="889" height="464" viewBox="0 0 889 464" fill="none" xmlns="http://www.w3.org/2000/svg">
<path d="M457.244 74.6173C457.244 74.6173 449.388 52.8439 436.228 58.6146C423.172 64.3479 433.909 81.6787 433.909 81.6787L457.244 74.6173Z" fill="#666666" stroke="black" stroke-width="0.935286" stroke-miterlimit="10"/>
<path d="M575.119 82.9414C575.119 82.9414 560.285 63.9925 556.591 66.2559C557.666 68.5287 558.499 79.1816 554.683 81.6788C557.311 85.4854 575.128 82.9414 575.128 82.9414" fill="#666666"/>
<path d="M575.119 82.9414C575.119 82.9414 560.285 63.9925 556.591 66.2559C557.666 68.5287 558.499 79.1816 554.683 81.6788C557.311 85.4854 575.128 82.9414 575.128 82.9414" stroke="black" stroke-width="0.935286" stroke-miterlimit="10"/>
<path d="M461.79 390.8C461.79 390.8 453.662 414.425 439.577 407.738C425.491 401.051 436.911 386.189 436.911 386.189C436.911 386.189 462.276 385.806 461.79 390.8Z" fill="#666666" stroke="black" stroke-width="0.935286" stroke-miterlimit="10"/>
<path d="M576.204 384.403C576.204 384.403 564.69 403.193 561.024 400.172C562.062 395.794 559.368 387.358 559.368 387.358C559.368 387.358 574.062 380.456 576.204 384.403Z" fill="#666666"/>
<path d="M576.204 384.403C576.204 384.403 564.69 403.193 561.024 400.172C562.062 395.794 559.368 387.358 559.368 387.358C559.368 387.358 574.062 380.456 576.204 384.403" stroke="black" stroke-width="0.935286" stroke-miterlimit="10"/>
<path d="M460.219 390.351C460.967 390.351 461.715 390.342 462.482 390.314C471.825 390.033 481.683 389.977 492.121 389.921C543.917 389.631 602.616 389.304 615.598 360.123C621.322 343.606 621.836 130.819 621.846 128.668C621.846 128.546 622.182 117.987 616.804 107.203C611.857 97.2794 600.886 85.1113 576.774 83.512C530.159 80.4349 457.936 75.1318 457.216 75.0757C457.16 75.085 444.047 76.3103 431.103 83.7084C419.197 90.5079 404.99 104.098 404.952 130.173C404.868 180.529 406.449 329.576 406.458 331.073C406.458 331.222 406.542 346.103 413.211 360.777C422.124 380.4 437.949 390.342 460.237 390.342L460.219 390.351Z" fill="#666666"/>
<path d="M457.254 75.5527C456.197 75.6556 443.664 77.0585 431.299 84.1386C423.789 88.4316 417.803 93.9591 413.52 100.544C408.16 108.783 405.429 118.754 405.411 130.173C405.327 180.529 406.898 329.567 406.917 331.082C406.917 331.232 406.991 345.981 413.613 360.562C417.485 369.083 422.798 375.873 429.42 380.727C437.687 386.797 448.06 389.884 460.228 389.884C460.967 389.884 461.724 389.874 462.473 389.846C471.816 389.565 481.674 389.509 492.112 389.453C543.74 389.163 602.261 388.836 615.158 359.973C620.854 343.222 621.378 130.819 621.378 128.639C621.378 128.537 621.705 118.061 616.365 107.38C609.238 93.1173 595.901 85.2516 576.737 83.9796C530.814 80.9493 460.041 75.7491 457.254 75.5433M457.244 74.608C457.244 74.608 529.654 79.9298 576.802 83.0443C623.95 86.1682 622.313 128.677 622.313 128.677C622.313 128.677 621.855 343.503 616.028 360.319C600.334 395.598 519.02 389.098 462.501 390.791C461.734 390.809 460.976 390.828 460.228 390.828C405.991 390.828 405.991 331.091 405.991 331.091C405.991 331.091 404.401 181.128 404.485 130.183C404.569 79.2377 457.254 74.6267 457.254 74.6267L457.244 74.608Z" fill="black"/>
<path d="M420.263 290.668C428.11 290.622 428.428 283.448 428.437 283.149L428.288 258.541C428.288 258.541 428.278 255.895 426.352 253.958C424.93 252.537 422.844 251.817 420.123 251.817C417.279 251.835 415.166 252.574 413.753 254.024C411.845 255.988 411.864 258.607 411.864 258.635L412.014 283.401C412.023 283.682 412.425 290.678 420.188 290.678H420.263V290.668Z" fill="#666666"/>
<path d="M420.113 251.349V252.284H420.029C417.41 252.303 415.418 252.995 414.09 254.342C412.313 256.156 412.322 258.607 412.322 258.644L412.472 283.364C412.481 283.644 412.884 290.21 420.179 290.21H420.254C427.633 290.163 427.951 283.429 427.96 283.177L427.811 258.541C427.811 258.289 427.727 252.284 420.113 252.284V251.349ZM420.113 251.349C428.802 251.349 428.746 258.541 428.746 258.541L428.896 283.167C428.896 283.167 428.671 291.099 420.263 291.145C420.235 291.145 420.207 291.145 420.179 291.145C411.864 291.145 411.537 283.401 411.537 283.401L411.387 258.644C411.387 258.644 411.228 251.396 420.02 251.349C420.048 251.349 420.085 251.349 420.113 251.349Z" fill="black"/>
<path d="M418.729 224.469C426.595 224.319 426.801 217.146 426.801 216.846L426.342 192.239C426.342 191.968 426.193 185.617 418.28 185.617H418C415.25 185.673 413.145 186.44 411.752 187.909C409.863 189.891 409.919 192.519 409.919 192.548L410.386 217.305C410.405 217.585 410.882 224.478 418.486 224.478H418.729V224.469Z" fill="#666666"/>
<path d="M418.29 186.075C418.196 186.075 418.112 186.075 418.018 186.075C415.4 186.122 413.417 186.842 412.107 188.208C410.349 190.041 410.396 192.491 410.396 192.529L410.854 217.248C410.873 217.52 411.303 223.992 418.486 223.992H418.72C426.099 223.852 426.333 217.108 426.333 216.856L425.875 192.229C425.875 191.977 425.706 186.075 418.28 186.075M418.28 185.14C426.773 185.14 426.81 192.22 426.81 192.22L427.268 216.837C427.268 216.837 427.137 224.768 418.739 224.927C418.654 224.927 418.57 224.927 418.486 224.927C410.33 224.927 409.919 217.295 409.919 217.295L409.46 192.547C409.46 192.547 409.208 185.308 418 185.14C418.103 185.14 418.196 185.14 418.29 185.14H418.28Z" fill="black"/>
<path d="M435.503 325.428L431.958 136.463C431.958 136.463 433.389 87.5849 477.806 88.5389C522.223 89.4929 576.189 93.3182 576.189 93.3182C576.189 93.3182 621.083 86.154 622.991 146.33C624.899 206.507 624.908 322.566 624.908 322.566C624.908 322.566 628.088 369.527 579.537 372.239C521.269 375.485 485.447 376.541 485.447 376.541C485.447 376.541 436.429 375.082 435.503 325.437V325.428Z" fill="#434343" stroke="black" stroke-width="0.935286" stroke-miterlimit="10"/>
<path d="M240.65 43.65L235.937 29.8919C235.937 29.8919 242.979 25.3558 258.627 29.5926C259.524 33.1187 240.66 43.65 240.66 43.65H240.65Z" fill="#1A1A1A" stroke="black" stroke-width="0.935286" stroke-miterlimit="10"/>
<path d="M325.238 462.106C346.843 462.106 367.578 458.459 382.711 455.802C387.921 454.886 392.419 454.091 396.329 453.548C439.801 447.441 461.799 423.535 470.076 414.528L470.179 414.416L470.329 414.388C478.195 412.817 483.451 409.524 485.958 404.596C489.465 397.702 486.453 389.622 485.799 388.022L388.828 391.445C382.253 405.886 375.145 408.926 370.337 408.926C366.83 408.926 364.258 407.364 363.341 406.709L349.63 422.693L349.275 422.347C349.116 422.188 332.683 406.055 305.269 363.041C279.053 321.907 281.027 256.53 281.298 250.086L184.056 253.407C183.57 259.355 178.94 329.006 221.065 405.549C242.007 443.606 276.088 462.116 325.247 462.116L325.238 462.106ZM300.425 416.689C302.379 416.689 308.786 416.997 309.113 421.029C309.263 422.852 308.889 424.293 308.01 425.312C306.962 426.528 305.419 426.855 304.306 426.921C304.147 426.921 295.514 426.865 289.557 426.696C284.684 426.565 282.963 424.059 282.991 422.413C283.056 418.513 286.573 416.736 290.024 416.689C291.147 416.679 292.634 416.67 294.13 416.67C297.058 416.67 299.976 416.689 300.06 416.689C300.06 416.689 300.2 416.689 300.434 416.689H300.425ZM281.803 395.785C283.758 395.785 290.164 396.131 290.492 400.621C290.651 402.772 290.221 404.437 289.239 405.568C288.191 406.775 286.732 407.111 285.694 407.186C285.516 407.186 276.893 407.121 270.935 406.934C266.062 406.784 264.341 404.006 264.369 402.173C264.435 397.824 267.951 395.832 271.403 395.794C272.525 395.785 274.012 395.776 275.509 395.776C278.436 395.776 281.345 395.794 281.438 395.794C281.438 395.794 281.579 395.794 281.812 395.794L281.803 395.785ZM265.248 367.268C269.28 367.268 273.685 368.718 273.937 372.805C274.339 379.221 270.72 380.203 269.139 380.325C268.933 380.325 260.329 380.25 254.371 380.035C249.498 379.857 247.777 376.687 247.805 374.592C247.871 369.606 251.387 367.324 254.829 367.268C255.952 367.25 257.439 367.25 258.935 367.25C261.853 367.25 264.762 367.268 264.865 367.268C264.865 367.268 265.005 367.268 265.239 367.268H265.248ZM252.37 336.133C256.401 336.133 260.806 337.695 261.058 342.072C261.442 348.712 258.215 349.984 256.26 350.153C256.045 350.153 247.441 350.078 241.492 349.844C236.629 349.657 234.898 346.252 234.926 344.008C234.992 338.957 238.901 336.264 242.736 336.198C246.038 336.151 251.836 336.142 251.986 336.142C251.986 336.142 252.136 336.142 252.37 336.142V336.133ZM242.465 300.826C246.496 300.826 250.901 302.387 251.154 306.765C251.537 313.405 248.31 314.677 246.356 314.845C246.141 314.845 237.536 314.771 231.587 314.537C226.724 314.35 224.994 310.945 225.022 308.701C225.087 303.341 228.604 300.891 232.046 300.835C233.168 300.816 234.665 300.816 236.152 300.816C239.07 300.816 241.969 300.835 242.081 300.835C242.081 300.835 242.231 300.835 242.455 300.835L242.465 300.826Z" fill="#1A1A1A"/>
<path d="M280.793 250.563L184.468 253.855C184.168 257.671 183.177 274.628 186.404 299.039C189.78 324.6 198.6 363.78 221.458 405.325C232.897 426.107 248.75 441.305 268.597 450.518C284.749 458.01 303.268 461.648 325.238 461.648C347.208 461.648 367.513 458.01 382.627 455.344C387.846 454.428 392.345 453.633 396.264 453.081C439.567 447.001 461.481 423.18 469.73 414.21L469.936 413.986L470.235 413.93C477.952 412.396 483.096 409.178 485.537 404.39C488.773 398.03 486.294 390.585 485.481 388.509L389.127 391.904C382.477 406.344 375.248 409.394 370.328 409.394C367.073 409.394 364.595 408.093 363.416 407.327L350.294 422.618L349.649 423.376L348.938 422.684C348.779 422.525 332.309 406.344 304.858 363.293C290.454 340.687 284.684 310.964 282.392 290.004C280.25 270.429 280.634 254.641 280.793 250.573M242.063 300.377C242.119 300.377 242.259 300.377 242.456 300.377C246.702 300.377 251.341 302.051 251.612 306.755C252.033 314.06 248.105 315.182 246.393 315.322H246.346H246.3C246.215 315.322 237.545 315.238 231.559 315.014C226.359 314.808 224.517 311.132 224.545 308.701C224.62 303.033 228.361 300.433 232.036 300.377C233.037 300.358 234.421 300.349 236.152 300.349C238.967 300.349 241.773 300.367 242.063 300.367M256.251 350.629H256.204C256.12 350.629 247.45 350.545 241.464 350.321C236.264 350.115 234.421 346.439 234.449 344.008C234.515 338.658 238.668 335.805 242.727 335.74C245.963 335.693 251.565 335.684 251.967 335.684C252.023 335.684 252.164 335.684 252.37 335.684C256.616 335.684 261.255 337.358 261.526 342.062C261.947 349.367 258.019 350.489 256.307 350.629H256.26M264.856 366.819C264.912 366.819 265.052 366.819 265.248 366.819C269.495 366.819 274.124 368.391 274.405 372.796C274.826 379.633 270.888 380.68 269.177 380.811H269.139H269.102C269.018 380.811 260.348 380.736 254.362 380.521C249.161 380.334 247.319 376.883 247.347 374.601C247.422 369.298 251.163 366.875 254.839 366.819C255.961 366.801 257.458 366.801 258.945 366.801C261.769 366.801 264.575 366.819 264.865 366.819M281.42 395.327C281.476 395.327 281.607 395.327 281.812 395.327C283.87 395.327 290.613 395.71 290.969 400.592C291.137 402.875 290.67 404.652 289.603 405.886C288.687 406.934 287.349 407.551 285.731 407.663H285.694H285.656C285.572 407.663 276.902 407.598 270.926 407.411C265.716 407.252 263.874 404.193 263.911 402.173C263.986 397.515 267.727 395.374 271.403 395.336C272.525 395.327 274.021 395.317 275.509 395.317C278.342 395.317 281.167 395.336 281.429 395.336M300.06 416.24C300.107 416.24 300.247 416.24 300.453 416.24C302.51 416.24 309.244 416.586 309.6 421.01C309.759 422.964 309.347 424.517 308.384 425.639C307.467 426.696 306.074 427.304 304.362 427.407H304.334H304.306C304.222 427.407 295.561 427.351 289.575 427.183C284.366 427.042 282.523 424.255 282.551 422.422C282.626 418.213 286.367 416.287 290.043 416.24C291.165 416.23 292.662 416.221 294.149 416.221C296.992 416.221 299.826 416.24 300.069 416.24M281.803 249.609C281.803 249.609 277.978 319.335 305.681 362.798C333.384 406.26 349.621 422.02 349.621 422.02L363.295 406.073C363.295 406.073 366.138 408.458 370.365 408.458C375.313 408.458 382.15 405.185 388.557 390.987L486.135 387.545C486.135 387.545 496.405 409.674 470.451 414.846C459.47 426.79 437.744 448.208 396.423 454.007C380.747 456.205 354.073 462.574 325.266 462.574C287.424 462.574 245.888 451.594 220.663 405.765C176.246 325.049 183.635 252.939 183.635 252.939L281.794 249.591L281.803 249.609ZM242.119 301.312C242.119 301.312 239.154 301.293 236.189 301.293C234.702 301.293 233.215 301.293 232.093 301.312C228.725 301.368 225.592 303.744 225.527 308.71C225.499 310.768 227.098 313.901 231.644 314.069C237.686 314.303 246.356 314.378 246.356 314.378C248.432 314.2 251.069 312.722 250.723 306.793C250.424 301.63 244.12 301.293 242.502 301.293C242.259 301.293 242.128 301.293 242.128 301.293L242.119 301.312ZM256.26 349.704C258.337 349.526 260.974 348.048 260.628 342.118C260.329 336.956 254.025 336.619 252.407 336.619C252.164 336.619 252.033 336.619 252.033 336.619C252.033 336.619 246.159 336.619 242.792 336.675C239.425 336.731 235.506 339.051 235.441 344.026C235.413 346.084 237.012 349.217 241.558 349.386C247.6 349.619 256.27 349.694 256.27 349.694L256.26 349.704ZM264.912 367.755C264.912 367.755 261.947 367.736 258.982 367.736C257.495 367.736 256.008 367.736 254.885 367.755C251.518 367.801 248.385 370.009 248.32 374.61C248.292 376.518 249.891 379.418 254.437 379.577C260.478 379.792 269.149 379.867 269.149 379.867C271.225 379.708 273.853 378.333 273.516 372.843C273.217 368.054 266.913 367.745 265.295 367.745C265.052 367.745 264.921 367.745 264.921 367.745L264.912 367.755ZM281.466 396.262C281.466 396.262 278.501 396.243 275.537 396.243C274.049 396.243 272.562 396.243 271.44 396.262C268.073 396.299 264.94 398.207 264.874 402.182C264.846 403.829 266.446 406.335 270.991 406.475C277.033 406.662 285.703 406.728 285.703 406.728C287.78 406.588 290.417 405.409 290.071 400.658C289.772 396.524 283.468 396.262 281.85 396.262C281.607 396.262 281.476 396.262 281.476 396.262H281.466ZM300.088 417.166C300.088 417.166 297.123 417.147 294.158 417.147C292.671 417.147 291.184 417.147 290.062 417.166C286.695 417.203 283.561 418.896 283.496 422.422C283.468 423.881 285.067 426.107 289.613 426.229C295.655 426.397 304.325 426.453 304.325 426.453C306.401 426.332 309.039 425.275 308.693 421.066C308.393 417.4 302.089 417.156 300.471 417.156C300.228 417.156 300.097 417.156 300.097 417.156L300.088 417.166Z" fill="black"/>
<path d="M196.598 258.017C215.585 258.017 282.617 256.194 285.787 256.109C286.423 255.754 290.38 253.397 291.717 248.543C292.942 244.072 291.661 238.825 287.91 232.942L287.826 232.812V232.653C287.929 231.596 288.041 229.828 288.191 227.368C292.241 160.935 302.604 116.032 318.971 93.9122C345.917 57.5109 353.568 51.2071 353.876 50.9639L354.269 50.6553L360.526 59.6714C361.471 59.0074 363.968 57.5016 367.316 57.5016C371.89 57.5016 378.596 60.4009 384.61 74.1684C398.433 75.1598 477.11 80.8744 481.562 81.1924C482.254 80.5564 485.34 77.4793 485.415 73.046C485.481 69.2862 483.404 65.517 479.261 61.8319C478.064 60.7751 476.792 59.5872 475.417 58.3153C460.658 44.6601 435.966 21.8111 376.136 16.8073C364.183 15.8065 350.182 14.7403 335.301 14.7403C292.877 14.7403 263.078 23.3449 244.204 41.0405C242.353 42.7708 240.463 44.4543 238.462 46.2407C227.089 56.3605 214.2 67.8365 203.005 94.0993C189.986 124.636 181.952 169.203 178.454 230.333V230.398L178.435 230.455C178.229 231.091 177.724 243.492 183.57 251.517C186.712 255.829 191.099 258.017 196.617 258.017H196.598Z" fill="#1A1A1A"/>
<path d="M335.301 15.2173C316.483 15.2173 300.509 16.8822 286.479 20.3147C268.99 24.5889 254.876 31.6784 244.522 41.3866C242.671 43.1263 240.772 44.8098 238.77 46.5962C227.435 56.6879 214.584 68.1171 203.426 94.2864C190.425 124.777 182.41 169.287 178.912 230.361V230.464L178.875 230.586C178.659 231.455 178.248 243.979 184.299 251.732C187.32 255.595 191.454 257.55 196.608 257.55C215.398 257.55 281.261 255.763 285.666 255.642C286.479 255.174 290.052 252.892 291.277 248.403C292.465 244.063 291.203 238.947 287.518 233.195L287.349 232.924L287.377 232.606C287.471 231.558 287.574 229.791 287.723 227.34C288.444 215.527 289.94 190.939 294.373 164.582C299.891 131.754 308.047 107.885 318.597 93.6317C345.58 57.1743 353.278 50.8424 353.586 50.5898L354.372 49.9632L354.942 50.7863L360.648 59.0168C361.845 58.2498 364.23 57.0246 367.316 57.0246C372.002 57.0246 378.839 59.9334 384.928 73.7101C399.247 74.7389 475.155 80.2478 481.393 80.706C482.244 79.883 484.891 77.021 484.957 73.018C485.013 69.4078 482.993 65.7508 478.962 62.1687C477.764 61.1025 476.474 59.9146 475.108 58.652C467.953 52.0302 458.142 42.9579 442.654 34.8864C424.35 25.3558 401.959 19.4261 376.099 17.2656C364.155 16.2649 350.163 15.208 335.301 15.208M335.301 14.2727C350.678 14.2727 364.987 15.4044 376.174 16.3397C441.915 21.8298 465.933 49.3553 479.57 61.4766C492.383 72.859 481.721 81.6694 481.721 81.6694C481.721 81.6694 397.666 75.562 384.292 74.608C378.456 61.1025 372.03 57.9693 367.307 57.9693C363.21 57.9693 360.405 60.3355 360.405 60.3355L354.157 51.3287C354.157 51.3287 346.553 57.4174 319.336 94.1929C292.11 130.968 289.248 221.71 288.294 232.699C299.274 249.89 285.909 256.577 285.909 256.577C285.909 256.577 216.183 258.485 196.598 258.485C177.013 258.485 177.49 231.736 177.977 230.305C186.572 80.3413 220.963 62.1967 243.886 40.7039C266.876 19.1455 303.399 14.2821 335.301 14.2821V14.2727Z" fill="black"/>
<path d="M238.443 304.875C229.062 304.819 226.163 304.875 226.135 304.875C227.351 302.116 229.988 301.031 232.027 300.947C234.777 300.826 242.053 300.947 242.053 300.947C242.053 300.947 250.695 300.676 251.06 306.531C251.359 311.404 249.779 314.125 246.646 314.705C246.646 314.705 247.88 304.931 238.443 304.875Z" fill="black" stroke="black" stroke-width="0.935286" stroke-miterlimit="10"/>
<path d="M248.956 340.37C239.575 340.313 235.749 340.267 235.721 340.267C236.937 337.508 240.491 336.525 242.54 336.432C245.289 336.31 252.566 336.432 252.566 336.432C252.566 336.432 260.806 336.077 261.161 341.922C261.461 346.795 260.067 349.358 256.934 349.937C256.934 349.937 258.383 340.426 248.956 340.37Z" fill="black" stroke="black" stroke-width="0.935286" stroke-miterlimit="10"/>
<path d="M261.563 371.112C252.183 371.056 248.815 371.037 248.787 371.047C250.003 368.578 253.108 367.409 255.157 367.324C257.906 367.221 265.202 367.306 265.202 367.306C265.202 367.306 273.816 367.296 274.18 372.543C274.48 376.911 272.544 379.464 269.401 379.988C269.401 379.988 270.991 371.178 261.554 371.122L261.563 371.112Z" fill="black" stroke="black" stroke-width="0.935286" stroke-miterlimit="10"/>
<path d="M278.127 399.18C268.746 399.133 265.024 399.021 264.996 399.021C266.212 396.842 269.672 396.15 271.711 396.075C274.461 395.981 281.738 396.075 281.738 396.075C281.738 396.075 289.977 395.794 290.333 400.405C290.632 404.249 289.472 406.681 286.339 407.139C286.339 407.139 287.555 399.227 278.127 399.18Z" fill="black" stroke="black" stroke-width="0.935286" stroke-miterlimit="10"/>
<path d="M296.749 419.738C287.368 419.7 283.702 419.71 283.674 419.71C284.889 417.774 288.294 416.829 290.342 416.764C293.092 416.679 300.415 416.745 300.415 416.745C300.415 416.745 308.608 416.726 308.964 420.823C309.263 424.237 307.832 426.5 304.699 426.912C304.699 426.912 306.186 419.775 296.758 419.729L296.749 419.738Z" fill="black" stroke="black" stroke-width="0.935286" stroke-miterlimit="10"/>
<path d="M379.877 66.0688C379.877 66.0688 382.066 56.6224 368.373 45.4831C354.681 34.3439 337.864 12.7762 303.343 16.7699" stroke="black" stroke-width="0.935286" stroke-miterlimit="10"/>
<path d="M228.276 24.2615C228.276 24.2615 226.051 26.0573 228.276 33.0626C230.502 40.0679 236.236 54.649 236.236 54.649C236.236 54.649 238.901 61.4766 253.108 62.3557C270.617 63.9457 341.007 66.0688 341.007 66.0688C341.007 66.0688 349.387 68.0703 352.754 62.973" stroke="black" stroke-width="0.935286" stroke-miterlimit="10"/>
<path d="M241.436 59.8585L221.43 89.8999" stroke="black" stroke-width="0.935286" stroke-miterlimit="10"/>
<path d="M381.645 403.454C381.645 403.454 377.595 446.571 310.779 461.358" stroke="black" stroke-width="0.935286" stroke-miterlimit="10"/>
<path d="M190.566 283.364C190.566 283.364 217.137 387.91 239.818 416.567C250.321 429.465 277.211 445.224 291.829 445.458C306.448 445.701 339.398 438.238 350.378 421.992" stroke="black" stroke-width="0.935286" stroke-miterlimit="10"/>
<path d="M354.101 50.3747C292.147 1.98302 256.952 44.1738 250.246 52.7223C236.956 69.679 194.036 118.389 188.433 230.249" stroke="black" stroke-width="0.935286" stroke-miterlimit="10"/>
<path d="M258.505 30.556C258.505 30.556 237.845 29.0596 236.956 29.9575C236.067 30.8553 242.568 53.0029 244.597 53.8353C246.627 54.6677 344.411 59.3254 344.411 59.3254C344.411 59.3254 346.796 59.0448 346.796 57.6326C346.796 56.2203 351.098 54.5461 351.098 54.5461C351.098 54.5461 355.158 60.9902 351.098 67.2005C347.039 73.4108 333.506 92.1166 331.523 93.2295C329.54 94.3425 223.666 91.3309 221.44 89.8906C219.214 88.4502 209.019 57.6326 209.019 57.6326C209.019 57.6326 206.868 52.1611 211.17 46.4278C215.472 40.6945 226.453 26.1321 226.453 26.1321C226.453 26.1321 228.688 22.073 236.002 22.073C245.551 22.073 271.515 23.9623 271.515 23.9623L258.514 30.556H258.505Z" fill="#1A1A1A" stroke="black" stroke-width="0.935286" stroke-miterlimit="10"/>
<path d="M319.196 278.575C328.764 278.575 329.026 276.826 329.4 274.404L329.466 274.002C329.933 271.149 329.466 259.579 329.466 259.467L329.447 259L329.914 258.981C329.961 258.981 335.068 258.691 337.995 254.389C340.801 250.264 340.782 243.932 337.958 235.561H318.626C319.486 238.629 322.638 252.256 312.228 257.251L312.163 257.288H312.088C311.508 257.372 310.928 257.41 310.376 257.41C309.965 257.41 309.619 257.391 309.366 257.363L308.431 274.226L308.375 274.32C308.375 274.32 307.935 275.161 308.45 276.04C308.973 276.929 310.844 278.444 317.531 278.575C318.12 278.584 318.682 278.594 319.205 278.594L319.196 278.575Z" fill="#999999"/>
<path d="M319.224 236.02C320.253 240.041 322.572 252.789 312.425 257.662L312.284 257.728L312.135 257.746C311.536 257.821 310.937 257.858 310.367 257.858C310.161 257.858 309.965 257.858 309.796 257.849L308.899 274.132L308.88 274.348L308.786 274.525C308.749 274.591 308.478 275.171 308.852 275.807C309.235 276.452 310.853 277.967 317.531 278.098C318.12 278.107 318.672 278.117 319.205 278.117C323.555 278.117 326.314 277.733 327.642 276.938C328.596 276.368 328.736 275.694 328.942 274.338L329.007 273.927C329.465 271.121 329.007 259.598 328.998 259.486L328.96 258.56L329.886 258.513C329.933 258.513 334.815 258.223 337.602 254.117C340.277 250.17 340.277 244.091 337.612 236.029H319.224M317.99 235.094H338.285C346.404 258.738 329.924 259.448 329.924 259.448C329.924 259.448 330.401 271.149 329.924 274.076C329.466 276.863 329.662 279.043 319.196 279.043C318.663 279.043 318.102 279.043 317.503 279.024C305.326 278.781 307.954 274.076 307.954 274.076L308.908 256.82C308.908 256.82 309.441 256.923 310.358 256.923C310.816 256.923 311.377 256.895 312.013 256.82C323.48 251.33 317.98 235.094 317.98 235.094H317.99Z" fill="black"/>
<path d="M275.163 336.703C276.959 336.703 278.651 336.329 279.428 336.133C276.453 325.489 272.881 280.717 280.26 253.884C280.849 240.088 278.268 234.364 275.995 231.989C274.751 230.689 273.274 230.034 271.609 230.034C266.109 230.034 259.506 237.32 258.758 244.213C256.504 297.543 266.38 326.247 269.458 333.776C270.253 335.721 272.17 336.713 275.153 336.713L275.163 336.703Z" fill="#999999"/>
<path d="M271.618 230.492C266.324 230.492 259.974 237.544 259.235 244.231C256.99 297.477 266.829 326.088 269.897 333.598C270.617 335.356 272.385 336.245 275.163 336.245C276.613 336.245 277.997 335.992 278.857 335.796C275.902 324.329 272.525 280.352 279.802 253.809C280.372 240.21 277.875 234.617 275.668 232.307C274.517 231.109 273.152 230.492 271.618 230.492ZM271.618 229.557C276.884 229.557 281.523 235.683 280.737 253.949C273.096 281.652 277.155 327.144 280.017 336.451C280.017 336.451 277.707 337.171 275.163 337.171C272.619 337.171 270.084 336.516 269.027 333.944C266.876 328.688 255.924 300.274 258.3 244.157C259.048 237.226 265.726 229.557 271.618 229.557Z" fill="black"/>
<path d="M376.052 321.355C377.1 321.355 377.792 321.159 378.119 321.037C378.409 316.08 381.701 262.114 386.359 254.426C389.109 249.89 388.706 241.21 385.48 235.477C383.983 232.83 381.252 229.669 376.688 229.669C375.893 229.669 375.061 229.772 374.21 229.968C374.144 230.436 374.097 231.624 374.097 232.671C374.78 233.887 380.055 243.614 376.903 250.516C375.463 253.668 372.498 255.717 368.065 256.624C367.691 259.196 365.577 277.939 374.687 321.261C375.154 321.327 375.612 321.364 376.043 321.364L376.052 321.355Z" fill="#999999"/>
<path d="M376.688 229.201V230.137C376.024 230.137 375.341 230.211 374.64 230.352C374.593 230.875 374.565 231.755 374.565 232.55C375.472 234.186 380.495 243.782 377.333 250.713C375.865 253.93 372.891 256.044 368.486 257.017C368.037 260.505 366.353 279.211 375.079 320.85C375.416 320.887 375.734 320.906 376.052 320.906C376.791 320.906 377.324 320.803 377.67 320.71C378.063 314.116 381.327 261.843 385.966 254.201C388.641 249.787 388.23 241.332 385.078 235.73C383.647 233.186 381.028 230.155 376.697 230.155V229.22M376.697 229.22C387.837 229.22 391.194 247.393 386.77 254.688C381.991 262.572 378.577 321.374 378.577 321.374C378.577 321.374 377.754 321.841 376.061 321.841C375.556 321.841 374.977 321.795 374.312 321.692C364.286 274.16 367.663 256.24 367.663 256.24C385.33 252.901 373.63 232.811 373.63 232.811C373.63 232.811 373.63 229.585 373.873 229.585C374.864 229.332 375.809 229.22 376.697 229.22Z" fill="black"/>
<path d="M484.601 325.349L481.057 136.384C481.057 136.384 482.488 87.5056 526.904 88.4596C571.321 89.4136 625.287 93.2389 625.287 93.2389C625.287 93.2389 670.181 86.0746 672.089 146.251C673.997 206.427 674.006 322.487 674.006 322.487C674.006 322.487 677.186 369.448 628.636 372.16C570.367 375.405 534.546 376.462 534.546 376.462C534.546 376.462 485.527 375.003 484.601 325.358V325.349Z" fill="#BFD1ED" stroke="black" stroke-width="0.935286" stroke-miterlimit="10"/>
<path d="M590.345 299.722H583.939V326.845H581.722V299.722H575.381L575.399 298.787H590.336V299.722H590.345Z" fill="black"/>
<path d="M594.086 305.334H587.68V332.457H585.463V305.334H579.122L579.14 304.398H594.077V305.334H594.086Z" fill="black"/>
<path d="M633.02 168.795C636.332 163.826 640.077 161.593 645.19 161.593C650.232 161.593 653.977 163.826 657.289 168.795C660.386 173.476 661.97 179.741 661.97 187.519C661.97 195.225 660.386 201.491 657.289 206.244C653.977 211.213 650.232 213.445 645.19 213.445C640.077 213.445 636.332 211.213 633.02 206.172C629.923 201.491 628.338 195.153 628.338 187.519C628.338 179.813 629.923 173.548 633.02 168.795ZM645.19 210.421C647.927 210.421 649.872 209.268 651.672 206.604C653.328 204.011 655.129 197.602 655.129 187.519C655.129 177.365 653.328 170.955 651.6 168.435C649.872 165.77 647.927 164.618 645.19 164.618C642.382 164.618 640.437 165.77 638.709 168.435C637.053 171.027 635.252 177.365 635.252 187.519C635.252 197.962 637.413 203.795 638.349 205.884C639.789 209.124 641.806 210.421 645.19 210.421ZM597.104 168.795C600.417 163.826 604.162 161.593 609.275 161.593C614.316 161.593 618.061 163.826 621.374 168.795C624.47 173.476 626.055 179.741 626.055 187.519C626.055 195.225 624.47 201.491 621.374 206.244C618.061 211.213 614.316 213.445 609.275 213.445C604.162 213.445 600.417 211.213 597.104 206.172C594.007 201.491 592.423 195.153 592.423 187.519C592.423 179.813 594.007 173.548 597.104 168.795ZM609.275 210.421C612.011 210.421 613.956 209.268 615.756 206.604C617.413 204.011 619.213 197.602 619.213 187.519C619.213 177.365 617.413 170.955 615.684 168.435C613.956 165.77 612.011 164.618 609.275 164.618C606.466 164.618 604.522 165.77 602.793 168.435C601.137 171.027 599.336 177.365 599.336 187.519C599.336 197.962 601.497 203.795 602.433 205.884C603.874 209.124 605.89 210.421 609.275 210.421ZM590.787 210.709C590.787 211.789 590.355 212.725 589.635 213.517C588.843 214.31 587.907 214.67 586.826 214.67C585.746 214.67 584.81 214.31 584.018 213.517C583.225 212.797 582.865 211.789 582.865 210.709C582.865 209.629 583.225 208.692 584.018 207.972C584.81 207.18 585.746 206.82 586.826 206.82C587.907 206.82 588.843 207.18 589.635 207.972C590.355 208.692 590.787 209.629 590.787 210.709ZM590.787 185.215C590.787 186.295 590.355 187.231 589.635 188.023C588.843 188.816 587.907 189.176 586.826 189.176C585.746 189.176 584.81 188.816 584.018 188.023C583.225 187.231 582.865 186.295 582.865 185.215C582.865 184.135 583.225 183.198 584.018 182.406C584.81 181.686 585.746 181.254 586.826 181.254C587.979 181.254 588.915 181.686 589.635 182.478C590.355 183.27 590.787 184.207 590.787 185.215ZM551.294 168.795C554.607 163.826 558.352 161.593 563.465 161.593C568.506 161.593 572.251 163.826 575.564 168.795C578.661 173.476 580.245 179.741 580.245 187.519C580.245 195.225 578.661 201.491 575.564 206.244C572.251 211.213 568.506 213.445 563.465 213.445C558.352 213.445 554.607 211.213 551.294 206.172C548.198 201.491 546.613 195.153 546.613 187.519C546.613 179.813 548.198 173.548 551.294 168.795ZM563.465 210.421C566.202 210.421 568.146 209.268 569.947 206.604C571.603 204.011 573.404 197.602 573.404 187.519C573.404 177.365 571.603 170.955 569.875 168.435C568.146 165.77 566.202 164.618 563.465 164.618C560.657 164.618 558.712 165.77 556.984 168.435C555.327 171.027 553.527 177.365 553.527 187.519C553.527 197.962 555.687 203.795 556.624 205.884C558.064 209.124 560.08 210.421 563.465 210.421ZM515.379 168.795C518.691 163.826 522.436 161.593 527.55 161.593C532.591 161.593 536.336 163.826 539.648 168.795C542.745 173.476 544.33 179.741 544.33 187.519C544.33 195.225 542.745 201.491 539.648 206.244C536.336 211.213 532.591 213.445 527.55 213.445C522.436 213.445 518.691 211.213 515.379 206.172C512.282 201.491 510.698 195.153 510.698 187.519C510.698 179.813 512.282 173.548 515.379 168.795ZM527.55 210.421C530.286 210.421 532.231 209.268 534.031 206.604C535.687 204.011 537.488 197.602 537.488 187.519C537.488 177.365 535.687 170.955 533.959 168.435C532.231 165.77 530.286 164.618 527.55 164.618C524.741 164.618 522.796 165.77 521.068 168.435C519.412 171.027 517.611 177.365 517.611 187.519C517.611 197.962 519.772 203.795 520.708 205.884C522.148 209.124 524.165 210.421 527.55 210.421Z" fill="black"/>
<g clip-path="url(#clip0_19_5814)">
<path d="M541.767 252.331C544.271 252.564 546.551 254.037 548.32 256.344L543.785 263.043C543.201 262.405 542.514 261.974 541.767 261.812V252.331Z" fill="#BBBDBF"/>
<path d="M551.998 269.471C551.846 273.171 550.843 276.538 549.287 279.15L544.752 272.452C545.183 271.59 545.475 270.576 545.585 269.471H551.998Z" fill="#929497"/>
<path d="M549.281 257.772C550.843 260.385 551.846 263.743 551.998 267.451H545.585C545.469 266.347 545.177 265.332 544.746 264.47L549.281 257.772Z" fill="#A6A8AB"/>
<path d="M533.839 256.344C535.614 254.037 537.888 252.564 540.399 252.331V261.812C539.651 261.974 538.964 262.414 538.38 263.043L533.845 256.344H533.839Z" fill="#231F20"/>
<path d="M537.408 272.452L532.873 279.15C531.31 276.538 530.313 273.171 530.161 269.471H536.575C536.69 270.576 536.982 271.59 537.408 272.452Z" fill="#58595B"/>
<path d="M530.161 267.451C530.313 263.752 531.316 260.385 532.879 257.772L537.414 264.47C536.982 265.332 536.69 266.347 536.581 267.451H530.167H530.161Z" fill="#404041"/>
<path d="M548.314 280.578C546.545 282.886 544.265 284.358 541.761 284.583V275.11C542.508 274.939 543.195 274.509 543.779 273.88L548.314 280.578Z" fill="#808284"/>
<path d="M540.399 284.583C537.894 284.358 535.614 282.877 533.845 280.578L538.38 273.88C538.964 274.517 539.651 274.948 540.399 275.119V284.592V284.583Z" fill="#6D6E70"/>
</g>
<g clip-path="url(#clip1_19_5814)">
<path style="mix-blend-mode:multiply" d="M610.072 281.83C610.072 283.7 614.782 285.216 620.595 285.216C626.408 285.216 631.114 283.7 631.114 281.83C631.114 279.959 626.405 278.444 620.592 278.444C614.779 278.444 610.069 279.959 610.069 281.83H610.072Z" fill="url(#paint0_radial_19_5814)"/>
<path d="M620.592 282.372C626.351 282.372 631.035 275.484 631.035 267.02C631.035 258.555 626.351 251.662 620.592 251.662C614.833 251.662 610.149 258.551 610.149 267.02C610.149 275.489 614.833 282.377 620.592 282.377V282.372Z" fill="url(#paint1_radial_19_5814)"/>
<path d="M620.592 251.779C614.877 251.779 610.228 258.616 610.228 267.02C610.228 275.423 614.877 282.26 620.592 282.26C626.306 282.26 630.955 275.423 630.955 267.02C630.955 258.616 626.306 251.779 620.592 251.779ZM620.592 251.545C626.405 251.545 631.114 258.471 631.114 267.02C631.114 275.568 626.405 282.494 620.592 282.494C614.779 282.494 610.069 275.568 610.069 267.02C610.069 258.471 614.782 251.545 620.592 251.545Z" fill="#8C98A0"/>
<path style="mix-blend-mode:screen" opacity="0.6" d="M620.665 270.2C620.665 273.225 622.331 275.676 624.389 275.676C626.446 275.676 628.112 273.225 628.112 270.2C628.112 267.174 626.446 264.724 624.389 264.724C622.331 264.724 620.665 267.174 620.665 270.2Z" fill="url(#paint2_radial_19_5814)"/>
<path style="mix-blend-mode:screen" opacity="0.8" d="M624.363 260.758C624.363 261.483 624.764 262.072 625.257 262.072C625.75 262.072 626.15 261.483 626.15 260.758C626.15 260.033 625.75 259.444 625.257 259.444C624.764 259.444 624.363 260.033 624.363 260.758Z" fill="url(#paint3_radial_19_5814)"/>
<path style="mix-blend-mode:screen" opacity="0.8" d="M624.115 271.546C624.115 272.673 624.735 273.585 625.502 273.585C626.268 273.585 626.888 272.673 626.888 271.546C626.888 270.419 626.268 269.503 625.502 269.503C624.735 269.503 624.115 270.419 624.115 271.546Z" fill="url(#paint4_radial_19_5814)"/>
<path style="mix-blend-mode:screen" opacity="0.8" d="M617.558 258.406C617.558 259.766 618.308 260.865 619.231 260.865C620.153 260.865 620.903 259.762 620.903 258.406C620.903 257.049 620.156 255.946 619.231 255.946C618.305 255.946 617.558 257.049 617.558 258.406Z" fill="url(#paint5_radial_19_5814)"/>
<path style="mix-blend-mode:screen" d="M619.488 263.55C619.488 263.83 619.641 264.055 619.832 264.055C620.023 264.055 620.175 263.83 620.175 263.55C620.175 263.269 620.023 263.045 619.832 263.045C619.641 263.045 619.488 263.269 619.488 263.55Z" fill="url(#paint6_radial_19_5814)"/>
<path style="mix-blend-mode:screen" d="M622.516 264.448C622.516 265.023 622.834 265.486 623.222 265.486C623.609 265.486 623.927 265.018 623.927 264.448C623.927 263.877 623.609 263.409 623.222 263.409C622.834 263.409 622.516 263.877 622.516 264.448Z" fill="url(#paint7_radial_19_5814)"/>
<path style="mix-blend-mode:screen" opacity="0.8" d="M610.556 265.991C610.556 269.97 612.75 273.197 615.459 273.197C618.169 273.197 620.36 269.97 620.36 265.991C620.36 262.011 618.165 258.78 615.459 258.78C612.753 258.78 610.556 262.007 610.556 265.991Z" fill="url(#paint8_radial_19_5814)"/>
<path style="mix-blend-mode:screen" d="M619.571 269.091C616.493 264.471 613.03 262.063 611.659 263.526C611.697 263.452 611.735 263.386 611.78 263.321C613.036 261.511 616.642 263.924 619.835 268.713C623.028 273.501 624.595 278.851 623.336 280.661C623.292 280.726 623.244 280.782 623.193 280.839C624.214 278.856 622.646 273.716 619.568 269.096L619.571 269.091Z" fill="url(#paint9_linear_19_5814)"/>
<path style="mix-blend-mode:screen" opacity="0.4" d="M618.642 267.978C617.113 260.524 617.087 253.874 618.55 252.747C618.49 252.757 618.429 252.771 618.372 252.799C616.744 253.538 616.709 260.403 618.296 268.133C619.883 275.863 622.49 281.526 624.118 280.787C624.176 280.759 624.233 280.726 624.284 280.684C622.649 280.965 620.169 275.433 618.639 267.978H618.642Z" fill="url(#paint10_linear_19_5814)"/>
<path style="mix-blend-mode:screen" opacity="0.7" d="M621.053 274.114C625.61 272.281 628.984 268.904 628.799 266.426C628.825 266.51 628.847 266.594 628.863 266.683C629.327 269.18 625.874 272.744 621.148 274.642C616.423 276.541 612.219 276.055 611.755 273.562C611.739 273.473 611.729 273.384 611.723 273.291C612.422 275.559 616.496 275.947 621.053 274.114Z" fill="url(#paint11_linear_19_5814)"/>
<path style="mix-blend-mode:screen" d="M621.177 259.074C616.877 257.723 613.065 258.677 612.445 261.197C612.448 261.099 612.457 261.001 612.47 260.903C612.868 258.176 616.801 257.101 621.259 258.499C625.718 259.897 629.012 263.246 628.618 265.972C628.605 266.07 628.583 266.164 628.561 266.257C628.694 263.587 625.476 260.43 621.177 259.079V259.074Z" fill="url(#paint12_linear_19_5814)"/>
<path style="mix-blend-mode:screen" d="M616.68 262.642C613.44 268.899 612.677 276.125 614.874 279.146C614.782 279.061 614.686 278.973 614.597 278.87C612.095 276.068 612.791 268.535 616.149 262.049C619.51 255.562 624.265 252.574 626.764 255.375C626.853 255.473 626.936 255.581 627.015 255.693C624.452 253.383 619.918 256.385 616.677 262.642H616.68Z" fill="url(#paint13_linear_19_5814)"/>
<path style="mix-blend-mode:screen" d="M625.419 267.445C625.578 259.982 624.045 253.813 621.956 253.29C622.032 253.276 622.112 253.271 622.188 253.276C624.392 253.379 626.045 259.729 625.883 267.464C625.718 275.199 623.797 281.39 621.593 281.287C621.514 281.287 621.438 281.269 621.361 281.25C623.466 280.923 625.26 274.904 625.416 267.441L625.419 267.445Z" fill="url(#paint14_linear_19_5814)"/>
<path style="mix-blend-mode:screen" opacity="0.7" d="M617.682 278.089C621.886 280.315 625.883 279.828 626.834 277.055C626.818 277.167 626.796 277.275 626.77 277.387C626.023 280.441 621.883 281.044 617.526 278.734C613.166 276.424 610.241 272.08 610.988 269.03C611.014 268.923 611.045 268.82 611.08 268.717C610.61 271.743 613.481 275.867 617.685 278.089H617.682Z" fill="url(#paint15_linear_19_5814)"/>
<g style="mix-blend-mode:screen">
<path d="M614.308 258.186C614.308 260.781 617.122 262.89 620.595 262.89C624.067 262.89 626.878 260.781 626.878 258.186C626.878 255.59 624.064 253.481 620.592 253.481C617.119 253.481 614.305 255.586 614.305 258.186H614.308Z" fill="url(#paint16_linear_19_5814)"/>
</g>
</g>
<g clip-path="url(#clip2_19_5814)">
<path d="M579.58 286.144C586.074 286.144 591.353 278.268 591.353 268.596C591.353 258.924 586.074 251.047 579.58 251.047C573.086 251.047 567.807 258.916 567.807 268.596C567.807 278.275 573.086 286.144 579.58 286.144Z" fill="url(#paint17_linear_19_5814)"/>
<path d="M579.58 251.232C573.156 251.232 567.931 259.02 567.931 268.596C567.931 278.171 573.156 285.959 579.58 285.959C586.004 285.959 591.229 278.171 591.229 268.596C591.229 259.02 586.004 251.232 579.58 251.232ZM579.58 250.863C586.153 250.863 591.477 258.798 591.477 268.596C591.477 278.393 586.153 286.329 579.58 286.329C573.007 286.329 567.683 278.393 567.683 268.596C567.683 258.798 573.007 250.863 579.58 250.863Z" fill="#B2B4B7"/>
<path d="M570.905 268.596C570.905 275.741 574.787 281.526 579.58 281.526C584.373 281.526 588.255 275.741 588.255 268.596C588.255 261.451 584.373 255.665 579.58 255.665C574.787 255.665 570.905 261.451 570.905 268.596Z" fill="url(#paint18_linear_19_5814)"/>
<path d="M579.58 279.309C583.546 279.309 586.768 274.499 586.768 268.596C586.768 262.692 583.546 257.882 579.58 257.882C575.614 257.882 572.392 262.685 572.392 268.596C572.392 274.507 575.614 279.309 579.58 279.309Z" fill="url(#paint19_radial_19_5814)"/>
<path d="M579.58 258.251C575.753 258.251 572.64 262.891 572.64 268.596C572.64 274.3 575.753 278.94 579.58 278.94C583.407 278.94 586.52 274.3 586.52 268.596C586.52 262.891 583.407 258.251 579.58 258.251ZM579.58 257.512C583.689 257.512 587.016 262.47 587.016 268.596C587.016 274.721 583.689 279.679 579.58 279.679C575.471 279.679 572.145 274.713 572.145 268.596C572.145 262.478 575.476 257.512 579.58 257.512Z" fill="#8C98A0"/>
<g style="mix-blend-mode:multiply" opacity="0.8">
<path d="M575.163 259.692C575.119 260.187 575.084 260.69 575.084 261.207C575.084 267.325 578.41 272.29 582.52 272.29C584.175 272.29 585.697 271.47 586.936 270.11C586.441 275.511 583.337 279.679 579.58 279.679C575.476 279.679 572.145 274.713 572.145 268.596C572.145 264.946 573.334 261.709 575.163 259.692Z" fill="url(#paint20_linear_19_5814)"/>
</g>
</g>
<path d="M710.529 1.18811H485.125L436.49 31.1173" stroke="black" stroke-width="1.87057"/>
<path d="M0.178711 209.757H217.89L264.865 239.686" stroke="black" stroke-width="1.87057"/>
<path d="M730.638 445.449H536.775L494.946 390.267" stroke="black" stroke-width="1.87057"/>
<path d="M888.702 236.88H711.763L673.586 251.845" stroke="black" stroke-width="1.87057"/>
<defs>
<radialGradient id="paint0_radial_19_5814" cx="0" cy="0" r="1" gradientUnits="userSpaceOnUse" gradientTransform="translate(621.51 282.9) rotate(180) scale(10.4949 3.38457)">
<stop offset="0.1" stop-color="#DADADA" stop-opacity="0.95"/>
<stop offset="1" stop-color="white" stop-opacity="0"/>
</radialGradient>
<radialGradient id="paint1_radial_19_5814" cx="0" cy="0" r="1" gradientUnits="userSpaceOnUse" gradientTransform="translate(620.624 278.416) rotate(180) scale(10.8469 15.9513)">
<stop stop-color="white"/>
<stop offset="1" stop-color="#B1BFC7"/>
</radialGradient>
<radialGradient id="paint2_radial_19_5814" cx="0" cy="0" r="1" gradientUnits="userSpaceOnUse" gradientTransform="translate(624.389 270.2) rotate(180) scale(3.72375 5.4761)">
<stop offset="0.11" stop-color="white"/>
<stop offset="0.95"/>
</radialGradient>
<radialGradient id="paint3_radial_19_5814" cx="0" cy="0" r="1" gradientUnits="userSpaceOnUse" gradientTransform="translate(625.257 260.753) rotate(180) scale(0.893572 1.31408)">
<stop offset="0.11" stop-color="white"/>
<stop offset="0.95"/>
</radialGradient>
<radialGradient id="paint4_radial_19_5814" cx="0" cy="0" r="1" gradientUnits="userSpaceOnUse" gradientTransform="translate(625.502 271.542) rotate(180) scale(1.38647 2.03892)">
<stop offset="0.11" stop-color="white"/>
<stop offset="0.95"/>
</radialGradient>
<radialGradient id="paint5_radial_19_5814" cx="0" cy="0" r="1" gradientUnits="userSpaceOnUse" gradientTransform="translate(619.231 258.406) rotate(180) scale(1.67267 2.4598)">
<stop offset="0.11" stop-color="white"/>
<stop offset="0.95"/>
</radialGradient>
<radialGradient id="paint6_radial_19_5814" cx="0" cy="0" r="1" gradientUnits="userSpaceOnUse" gradientTransform="translate(619.832 263.55) rotate(180) scale(0.343437 0.505054)">
<stop offset="0.11" stop-color="white"/>
<stop offset="0.95"/>
</radialGradient>
<radialGradient id="paint7_radial_19_5814" cx="0" cy="0" r="1" gradientUnits="userSpaceOnUse" gradientTransform="translate(623.222 264.448) rotate(180) scale(0.705954 1.03817)">
<stop offset="0.11" stop-color="white"/>
<stop offset="0.95"/>
</radialGradient>
<radialGradient id="paint8_radial_19_5814" cx="0" cy="0" r="1" gradientUnits="userSpaceOnUse" gradientTransform="translate(615.459 265.991) rotate(180) scale(4.90034 7.20638)">
<stop offset="0.11" stop-color="white"/>
<stop offset="0.95"/>
</radialGradient>
<linearGradient id="paint9_linear_19_5814" x1="625.494" y1="263.47" x2="640.794" y2="274.681" gradientUnits="userSpaceOnUse">
<stop/>
<stop offset="0.6" stop-color="white"/>
<stop offset="0.9"/>
</linearGradient>
<linearGradient id="paint10_linear_19_5814" x1="1036.7" y1="-1378.46" x2="1050.04" y2="-1359.65" gradientUnits="userSpaceOnUse">
<stop/>
<stop offset="0.6" stop-color="white"/>
<stop offset="0.9"/>
</linearGradient>
<linearGradient id="paint11_linear_19_5814" x1="744.577" y1="-13.0573" x2="727.892" y2="-10.7119" gradientUnits="userSpaceOnUse">
<stop/>
<stop offset="0.6" stop-color="white"/>
<stop offset="0.9"/>
</linearGradient>
<linearGradient id="paint12_linear_19_5814" x1="612.87" y1="258.823" x2="629.559" y2="261.125" gradientUnits="userSpaceOnUse">
<stop/>
<stop offset="0.6" stop-color="white"/>
<stop offset="0.9"/>
</linearGradient>
<linearGradient id="paint13_linear_19_5814" x1="-5.06077" y1="-2622.1" x2="14.6094" y2="-2645.64" gradientUnits="userSpaceOnUse">
<stop/>
<stop offset="0.6" stop-color="white"/>
<stop offset="0.9"/>
</linearGradient>
<linearGradient id="paint14_linear_19_5814" x1="618.58" y1="243.93" x2="617.863" y2="272.343" gradientUnits="userSpaceOnUse">
<stop/>
<stop offset="0.6" stop-color="white"/>
<stop offset="0.9"/>
</linearGradient>
<linearGradient id="paint15_linear_19_5814" x1="199.128" y1="641.652" x2="181.01" y2="638.203" gradientUnits="userSpaceOnUse">
<stop/>
<stop offset="0.6" stop-color="white"/>
<stop offset="0.9"/>
</linearGradient>
<linearGradient id="paint16_linear_19_5814" x1="622.792" y1="265.78" x2="622.792" y2="278.212" gradientUnits="userSpaceOnUse">
<stop stop-color="white"/>
<stop offset="1"/>
</linearGradient>
<linearGradient id="paint17_linear_19_5814" x1="583.293" y1="255.303" x2="566.715" y2="282.017" gradientUnits="userSpaceOnUse">
<stop stop-color="white"/>
<stop offset="1" stop-color="#D4D6D7"/>
</linearGradient>
<linearGradient id="paint18_linear_19_5814" x1="572.313" y1="282.087" x2="590.156" y2="267.179" gradientUnits="userSpaceOnUse">
<stop stop-color="white"/>
<stop offset="1" stop-color="#B8BABC"/>
</linearGradient>
<radialGradient id="paint19_radial_19_5814" cx="0" cy="0" r="1" gradientUnits="userSpaceOnUse" gradientTransform="translate(581.479 263.616) rotate(180) scale(7.61397 11.3491)">
<stop stop-color="white"/>
<stop offset="1" stop-color="#B1BFC7"/>
</radialGradient>
<linearGradient id="paint20_linear_19_5814" x1="580.705" y1="265.692" x2="571.589" y2="276.245" gradientUnits="userSpaceOnUse">
<stop stop-color="white"/>
<stop offset="1" stop-color="#B7C6CE"/>
</linearGradient>
<clipPath id="clip0_19_5814">
<rect width="21.8371" height="32.2516" fill="white" transform="matrix(-1 0 0 1 551.998 252.331)"/>
</clipPath>
<clipPath id="clip1_19_5814">
<rect width="21.0419" height="33.6703" fill="white" transform="matrix(-1 0 0 1 631.114 251.545)"/>
</clipPath>
<clipPath id="clip2_19_5814">
<rect width="23.7937" height="35.466" fill="white" transform="matrix(-1 0 0 1 591.477 250.863)"/>
</clipPath>
</defs>
</svg>
